G04*
G04 #@! TF.GenerationSoftware,Altium Limited,Altium Designer,22.0.2 (36)*
G04*
G04 Layer_Color=255*
%FSLAX25Y25*%
%MOIN*%
G70*
G04*
G04 #@! TF.SameCoordinates,5FA76A90-C183-4406-A071-8446DD7401C7*
G04*
G04*
G04 #@! TF.FilePolarity,Positive*
G04*
G01*
G75*
D10*
X717800Y471673D02*
X717133D01*
X717000Y471540D01*
Y471273D01*
X717133Y471140D01*
X717800D01*
X717000Y470474D02*
X717800D01*
X717400Y470873D01*
Y470340D01*
D12*
X744709Y458874D02*
Y502181D01*
D18*
X742937Y502969D02*
X739001D01*
Y504936D01*
X739657Y505592D01*
X740969D01*
X741625Y504936D01*
Y502969D01*
X739657Y509528D02*
X739001Y508872D01*
Y507560D01*
X739657Y506904D01*
X742281D01*
X742937Y507560D01*
Y508872D01*
X742281Y509528D01*
X739001Y510840D02*
X742937D01*
Y512808D01*
X742281Y513464D01*
X741625D01*
X740969Y512808D01*
Y510840D01*
Y512808D01*
X740313Y513464D01*
X739657D01*
X739001Y512808D01*
Y510840D01*
Y521335D02*
Y518712D01*
X742937D01*
Y521335D01*
X740969Y518712D02*
Y520023D01*
X739001Y522647D02*
X742937D01*
Y524615D01*
X742281Y525271D01*
X739657D01*
X739001Y524615D01*
Y522647D01*
X739657Y529207D02*
X739001Y528551D01*
Y527239D01*
X739657Y526583D01*
X742281D01*
X742937Y527239D01*
Y528551D01*
X742281Y529207D01*
X740969D01*
Y527895D01*
X739001Y533143D02*
Y530519D01*
X742937D01*
Y533143D01*
X740969Y530519D02*
Y531831D01*
D30*
X727189Y471768D02*
D03*
Y489287D02*
D03*
D32*
X458429Y357500D02*
D03*
X446224D02*
D03*
D41*
X350000Y343500D02*
D03*
X340000D02*
D03*
X350000Y353500D02*
D03*
X340000D02*
D03*
X350000Y363500D02*
D03*
X340000D02*
D03*
X350000Y373500D02*
D03*
X340000D02*
D03*
X350000Y383500D02*
D03*
X340000D02*
D03*
X350000Y395000D02*
D03*
X340000D02*
D03*
X350000Y405000D02*
D03*
X340000D02*
D03*
X350000Y415000D02*
D03*
X340000D02*
D03*
X350000Y425000D02*
D03*
X340000D02*
D03*
X350000Y435000D02*
D03*
X340000D02*
D03*
X350000Y447000D02*
D03*
X340000D02*
D03*
X350000Y457000D02*
D03*
X340000D02*
D03*
X350000Y467000D02*
D03*
X340000D02*
D03*
X350000Y477000D02*
D03*
X340000D02*
D03*
X350000Y487000D02*
D03*
X340000D02*
D03*
X350000Y499000D02*
D03*
X340000D02*
D03*
X350000Y509000D02*
D03*
X340000D02*
D03*
X350000Y519000D02*
D03*
X340000D02*
D03*
X350000Y529000D02*
D03*
X340000D02*
D03*
X350000Y539000D02*
D03*
X340000D02*
D03*
D43*
X586000Y441000D02*
D03*
X572500Y447000D02*
D03*
X596500Y455000D02*
D03*
X560000Y449000D02*
D03*
X448000Y479000D02*
D03*
X502000Y308000D02*
D03*
X508500Y327500D02*
D03*
X481000Y305000D02*
D03*
X523000Y305500D02*
D03*
X510500Y299000D02*
D03*
X491000Y336000D02*
D03*
X473000Y559000D02*
D03*
X492000Y353500D02*
D03*
X483500Y324500D02*
D03*
X471500Y479500D02*
D03*
X459500Y474000D02*
D03*
X440500Y256500D02*
D03*
X458827Y263500D02*
D03*
X472827Y265500D02*
D03*
D59*
X739000Y496965D02*
D03*
Y464090D02*
D03*
D61*
X497000Y533500D02*
D03*
X492000D02*
D03*
D62*
X406827Y251000D02*
D03*
Y246000D02*
D03*
D64*
X502000Y533500D02*
D03*
D79*
X526500Y333968D02*
D03*
Y330031D02*
D03*
D84*
X359240Y248500D02*
D03*
X366327D02*
D03*
X373413D02*
D03*
X380500D02*
D03*
X362784Y252437D02*
D03*
X369870D02*
D03*
X376957D02*
D03*
X358256Y255587D02*
D03*
X381484D02*
D03*
X362784Y265823D02*
D03*
X369870D02*
D03*
X376957D02*
D03*
X359240Y269760D02*
D03*
X366327D02*
D03*
X373413D02*
D03*
X380500D02*
D03*
X358256Y262673D02*
D03*
X381484D02*
D03*
X354319Y266216D02*
D03*
Y259130D02*
D03*
Y252043D02*
D03*
Y244957D02*
D03*
Y237870D02*
D03*
X385421Y266216D02*
D03*
Y259130D02*
D03*
Y252043D02*
D03*
Y244957D02*
D03*
Y237870D02*
D03*
D139*
X715827Y468795D02*
D03*
X719173Y470173D02*
D03*
X715827Y471551D02*
D03*
D140*
X483417Y429673D02*
D03*
Y431642D02*
D03*
Y433610D02*
D03*
Y435579D02*
D03*
Y437547D02*
D03*
Y439516D02*
D03*
Y441484D02*
D03*
Y443453D02*
D03*
Y445421D02*
D03*
Y447390D02*
D03*
Y449358D02*
D03*
Y451327D02*
D03*
X510583D02*
D03*
Y449358D02*
D03*
Y447390D02*
D03*
Y445421D02*
D03*
Y443453D02*
D03*
Y441484D02*
D03*
Y439516D02*
D03*
Y437547D02*
D03*
Y435579D02*
D03*
Y433610D02*
D03*
Y431642D02*
D03*
Y429673D02*
D03*
D142*
X486173Y454083D02*
D03*
X488142D02*
D03*
X490110D02*
D03*
X492079D02*
D03*
X494047D02*
D03*
X496016D02*
D03*
X497984D02*
D03*
X499953D02*
D03*
X501921D02*
D03*
X503890D02*
D03*
X505858D02*
D03*
X507827D02*
D03*
Y426917D02*
D03*
X505858D02*
D03*
X503890D02*
D03*
X501921D02*
D03*
X499953D02*
D03*
X497984D02*
D03*
X496016D02*
D03*
X494047D02*
D03*
X492079D02*
D03*
X490110D02*
D03*
X488142D02*
D03*
X486173D02*
D03*
D148*
X404779Y406500D02*
D03*
X398874D02*
D03*
X414374D02*
D03*
X420280D02*
D03*
X441374Y332000D02*
D03*
X447280D02*
D03*
X329047Y275000D02*
D03*
X334953D02*
D03*
X330000Y240500D02*
D03*
X335906D02*
D03*
X330047Y254500D02*
D03*
X335953D02*
D03*
X397547Y388000D02*
D03*
X403453D02*
D03*
X530953Y380000D02*
D03*
X525047D02*
D03*
X531453Y357000D02*
D03*
X525547D02*
D03*
X539547Y316000D02*
D03*
X545453D02*
D03*
X478953Y514500D02*
D03*
X473047D02*
D03*
X478953Y494000D02*
D03*
X473047D02*
D03*
X462780Y332000D02*
D03*
X456874D02*
D03*
X426921Y509000D02*
D03*
X432827D02*
D03*
D149*
X615500Y436504D02*
D03*
D150*
Y427153D02*
D03*
D151*
X591500Y432453D02*
D03*
Y426547D02*
D03*
X560500Y433953D02*
D03*
Y428047D02*
D03*
X380000Y352547D02*
D03*
Y358453D02*
D03*
X418500Y411047D02*
D03*
Y416953D02*
D03*
X405000Y411095D02*
D03*
Y417000D02*
D03*
X387500Y437453D02*
D03*
Y431547D02*
D03*
X407000Y437953D02*
D03*
Y432047D02*
D03*
D152*
X335032Y265500D02*
D03*
X338968D02*
D03*
X426000Y431500D02*
D03*
X429937D02*
D03*
D153*
X497000Y440500D02*
D03*
D154*
X403327Y272827D02*
D03*
Y276173D02*
D03*
X406500Y293673D02*
D03*
Y290327D02*
D03*
X504500Y489673D02*
D03*
Y486327D02*
D03*
X499000Y494673D02*
D03*
Y491327D02*
D03*
X503000Y558173D02*
D03*
Y554827D02*
D03*
X359500Y290173D02*
D03*
Y286827D02*
D03*
X366000Y290673D02*
D03*
Y287327D02*
D03*
X372500Y290673D02*
D03*
Y287327D02*
D03*
X380000Y287653D02*
D03*
Y291000D02*
D03*
X388500Y291173D02*
D03*
Y287827D02*
D03*
X385500Y302673D02*
D03*
Y299327D02*
D03*
D155*
X569839Y523673D02*
D03*
X582437D02*
D03*
X569839Y545327D02*
D03*
X582437D02*
D03*
D156*
X402673Y377000D02*
D03*
X399327D02*
D03*
X403173Y369000D02*
D03*
X399827D02*
D03*
X400827Y362327D02*
D03*
X404173D02*
D03*
X465173Y422500D02*
D03*
X461827D02*
D03*
X707654Y478173D02*
D03*
X711000D02*
D03*
X460847Y427500D02*
D03*
X457500D02*
D03*
X708327Y463673D02*
D03*
X711673D02*
D03*
X414173Y509000D02*
D03*
X410827D02*
D03*
X443653Y496500D02*
D03*
X447000D02*
D03*
X418153Y256000D02*
D03*
X421500D02*
D03*
D157*
X383000Y366409D02*
D03*
Y369106D02*
D03*
Y371803D02*
D03*
Y374500D02*
D03*
Y377197D02*
D03*
X375126Y380701D02*
D03*
Y378024D02*
D03*
Y374087D02*
D03*
Y371528D02*
D03*
D158*
Y366941D02*
D03*
D159*
X728469Y483087D02*
D03*
Y480528D02*
D03*
Y485646D02*
D03*
Y477969D02*
D03*
Y475409D02*
D03*
D160*
X739000Y476000D02*
D03*
Y485055D02*
D03*
D161*
X502500Y572953D02*
D03*
Y567047D02*
D03*
D162*
X429453Y231500D02*
D03*
X423547D02*
D03*
D163*
X725500Y433799D02*
D03*
X725500Y446201D02*
D03*
D168*
X673472Y514221D02*
D03*
Y521779D02*
D03*
X682528D02*
D03*
D169*
Y515008D02*
D03*
D195*
X404500Y343000D02*
D03*
X394500D02*
D03*
X384500D02*
D03*
X374500D02*
D03*
X404500Y313000D02*
D03*
X394500D02*
D03*
X384500D02*
D03*
D196*
X374500D02*
D03*
D197*
X360000Y225500D02*
D03*
X711500Y254500D02*
D03*
X708000Y356000D02*
D03*
X708500Y319500D02*
D03*
X708000Y331000D02*
D03*
X712000Y268500D02*
D03*
X708500Y343500D02*
D03*
X711500Y294000D02*
D03*
Y281500D02*
D03*
D198*
X370000Y225500D02*
D03*
X380000D02*
D03*
X711000Y449000D02*
D03*
Y439000D02*
D03*
Y419000D02*
D03*
Y399000D02*
D03*
Y389000D02*
D03*
Y409000D02*
D03*
Y429000D02*
D03*
X701500Y254500D02*
D03*
X698000Y356000D02*
D03*
X698500Y319500D02*
D03*
X694000Y411500D02*
D03*
X698000Y331000D02*
D03*
X702000Y268500D02*
D03*
X698500Y343500D02*
D03*
X701500Y294000D02*
D03*
Y281500D02*
D03*
X599500Y540000D02*
D03*
X732000Y276000D02*
D03*
Y286000D02*
D03*
Y306000D02*
D03*
Y326000D02*
D03*
Y336000D02*
D03*
Y316000D02*
D03*
Y296000D02*
D03*
X726000Y402500D02*
D03*
D199*
X711000Y379000D02*
D03*
X694000Y421500D02*
D03*
X599500Y530000D02*
D03*
X732000Y346000D02*
D03*
X726000Y392500D02*
D03*
D200*
X406827Y256000D02*
D03*
D201*
X417827Y273500D02*
D03*
D202*
Y293500D02*
D03*
X428000Y492000D02*
D03*
D203*
X408000D02*
D03*
D204*
X712500Y528673D02*
D03*
Y488673D02*
D03*
D205*
X602343Y509500D02*
D03*
X549157Y505500D02*
D03*
X697500Y505158D02*
D03*
X658500Y504658D02*
D03*
D206*
X582657Y509500D02*
D03*
X568843Y505500D02*
D03*
D207*
X697500Y524843D02*
D03*
X658500Y524342D02*
D03*
D208*
X613000Y250500D02*
D03*
X623000D02*
D03*
X633000D02*
D03*
X653000D02*
D03*
X643000D02*
D03*
D209*
X663000D02*
D03*
D210*
X553500Y260000D02*
D03*
Y250000D02*
D03*
X543500Y260000D02*
D03*
X563500Y250000D02*
D03*
Y260000D02*
D03*
X573500Y250000D02*
D03*
X583500D02*
D03*
X573500Y260000D02*
D03*
X583500D02*
D03*
D211*
X543500Y250000D02*
D03*
M02*
