G04*
G04 #@! TF.GenerationSoftware,Altium Limited,Altium Designer,22.0.2 (36)*
G04*
G04 Layer_Color=65535*
%FSLAX25Y25*%
%MOIN*%
G70*
G04*
G04 #@! TF.SameCoordinates,5FA76A90-C183-4406-A071-8446DD7401C7*
G04*
G04*
G04 #@! TF.FilePolarity,Positive*
G04*
G01*
G75*
D10*
X717800Y471673D02*
X717133D01*
X717000Y471540D01*
Y471273D01*
X717133Y471140D01*
X717800D01*
X717000Y470474D02*
X717800D01*
X717400Y470873D01*
Y470340D01*
D12*
X744709Y458874D02*
Y502181D01*
D14*
X700975Y447504D02*
X700308Y448170D01*
Y449503D01*
X700975Y450170D01*
X701641D01*
X702308Y449503D01*
X702974Y450170D01*
X703641D01*
X704307Y449503D01*
Y448170D01*
X703641Y447504D01*
X702974D01*
X702308Y448170D01*
X701641Y447504D01*
X700975D01*
X702308Y448170D02*
Y449503D01*
X704307Y378528D02*
Y379860D01*
Y379194D01*
X700308D01*
X700975Y378528D01*
X742025Y277496D02*
X742692Y276830D01*
Y275497D01*
X742025Y274830D01*
X741359D01*
X740692Y275497D01*
X740026Y274830D01*
X739359D01*
X738693Y275497D01*
Y276830D01*
X739359Y277496D01*
X740026D01*
X740692Y276830D01*
X741359Y277496D01*
X742025D01*
X740692Y276830D02*
Y275497D01*
X738693Y346472D02*
Y345140D01*
Y345806D01*
X742692D01*
X742025Y346472D01*
X590311Y258543D02*
X591644D01*
X590977D01*
Y262542D01*
X590311Y261876D01*
X593643D02*
X594310Y262542D01*
X595643D01*
X596309Y261876D01*
Y259210D01*
X595643Y258543D01*
X594310D01*
X593643Y259210D01*
Y261876D01*
X590311Y248580D02*
X590977Y247913D01*
X592310D01*
X592977Y248580D01*
Y251246D01*
X592310Y251912D01*
X590977D01*
X590311Y251246D01*
Y250579D01*
X590977Y249913D01*
X592977D01*
X535114Y247913D02*
X536447D01*
X535781D01*
Y251912D01*
X535114Y251246D01*
X536599Y258543D02*
X533933D01*
X536599Y261209D01*
Y261876D01*
X535932Y262542D01*
X534599D01*
X533933Y261876D01*
D16*
X370209Y325500D02*
G03*
X370209Y330500I0J2500D01*
G01*
X456875Y361524D02*
G03*
X447645Y361460I-4588J-4024D01*
G01*
X447684Y353540D02*
G03*
X456914Y353476I4643J3960D01*
G01*
X599661Y512774D02*
G03*
X585860Y513732I-7161J-3274D01*
G01*
Y505268D02*
G03*
X599661Y506226I6640J4232D01*
G01*
X551839Y502226D02*
G03*
X565640Y501268I7161J3274D01*
G01*
Y509732D02*
G03*
X551839Y508774I-6640J-4232D01*
G01*
X700774Y507839D02*
G03*
X701732Y521640I-3274J7161D01*
G01*
X693268D02*
G03*
X694226Y507839I4232J-6640D01*
G01*
X661774Y507339D02*
G03*
X662732Y521140I-3274J7161D01*
G01*
X654268D02*
G03*
X655226Y507339I4232J-6640D01*
G01*
X397496Y402268D02*
X406157D01*
X397496Y410732D02*
X406157D01*
X412996D02*
X421658D01*
X412996Y402268D02*
X421658D01*
X408791Y317567D02*
Y338433D01*
X370209Y330500D02*
Y338433D01*
Y317567D02*
Y325500D01*
Y338433D02*
X408791D01*
X370209Y317567D02*
X408791D01*
X611071Y424594D02*
Y436406D01*
X619929Y424594D02*
Y436406D01*
X595732Y425169D02*
Y433831D01*
X587268Y425169D02*
Y433831D01*
X564732Y426669D02*
Y435331D01*
X556268Y426669D02*
Y435331D01*
X439996Y336232D02*
X448658D01*
X439996Y327768D02*
X448658D01*
X388177Y233933D02*
Y272516D01*
X351563D02*
X388177D01*
X351563Y233933D02*
Y272516D01*
Y233933D02*
X388177D01*
X327669Y279232D02*
X336331D01*
X327669Y270768D02*
X336331D01*
X328622Y244732D02*
X337283D01*
X328622Y236268D02*
X337283D01*
X328669Y258732D02*
X337331D01*
X328669Y250268D02*
X337331D01*
X385591Y220205D02*
Y230795D01*
X354410D02*
X385591D01*
X354410Y220205D02*
Y230795D01*
Y220205D02*
X385591D01*
X341331Y264909D02*
Y266090D01*
X525909Y327669D02*
X527091D01*
X483220Y426721D02*
X484106D01*
X509894D02*
X510779D01*
Y453394D02*
Y454280D01*
Y426721D02*
Y427606D01*
X483220Y454280D02*
X484106D01*
X509894D02*
X510779D01*
X483220Y453394D02*
Y454280D01*
Y426721D02*
Y427606D01*
X705705Y454591D02*
X716295D01*
X705705Y373410D02*
Y454591D01*
Y373410D02*
X716295D01*
Y454591D01*
X401276Y243244D02*
X403008Y241512D01*
X401276Y258756D02*
X403008Y260488D01*
Y260449D02*
X412378D01*
X403008Y241551D02*
X412378D01*
X401276Y243244D02*
Y258756D01*
X412378Y241551D02*
Y260449D01*
X412827Y266650D02*
Y300350D01*
X422827D01*
Y266650D02*
Y300350D01*
X412827Y266650D02*
X422827D01*
X695910Y259795D02*
X717091D01*
Y249205D02*
Y259795D01*
X695910Y249205D02*
X717091D01*
X695910D02*
Y259795D01*
X692410Y361295D02*
X713590D01*
Y350705D02*
Y361295D01*
X692410Y350705D02*
X713590D01*
X692410D02*
Y361295D01*
X692909Y324795D02*
X714090D01*
Y314205D02*
Y324795D01*
X692909Y314205D02*
X714090D01*
X692909D02*
Y324795D01*
X688705Y405909D02*
Y427091D01*
X699295D01*
Y405909D02*
Y427091D01*
X688705Y405909D02*
X699295D01*
X692410Y336295D02*
X713590D01*
Y325705D02*
Y336295D01*
X692410Y325705D02*
X713590D01*
X692410D02*
Y336295D01*
X696410Y273795D02*
X717591D01*
Y263205D02*
Y273795D01*
X696410Y263205D02*
X717591D01*
X696410D02*
Y273795D01*
X692909Y348795D02*
X714090D01*
Y338205D02*
Y348795D01*
X692909Y338205D02*
X714090D01*
X692909D02*
Y348795D01*
X695910Y299295D02*
X717091D01*
Y288705D02*
Y299295D01*
X695910Y288705D02*
X717091D01*
X695910D02*
Y299295D01*
Y286795D02*
X717091D01*
Y276205D02*
Y286795D01*
X695910Y276205D02*
X717091D01*
X695910D02*
Y286795D01*
X568657Y527807D02*
Y541193D01*
X583618Y527807D02*
Y541193D01*
X568657Y549461D02*
Y550248D01*
X583618D01*
Y549461D02*
Y550248D01*
X568657Y518752D02*
Y519539D01*
Y518752D02*
X583618D01*
Y519539D01*
X677016Y512016D02*
X678984D01*
X680756Y518551D02*
Y519122D01*
X677016Y523984D02*
X678984D01*
X675244Y516878D02*
Y519122D01*
X717992Y468008D02*
X719173D01*
X717992Y472339D02*
X719173D01*
X401150Y497000D02*
X434850D01*
Y487000D02*
Y497000D01*
X401150Y487000D02*
X434850D01*
X401150D02*
Y497000D01*
X487512Y537319D02*
X489244Y539051D01*
X504756D02*
X506488Y537319D01*
X506449Y527949D02*
Y537319D01*
X487551Y527949D02*
Y537319D01*
X489244Y539051D02*
X504756D01*
X487551Y527949D02*
X506449D01*
X604795Y524409D02*
Y545590D01*
X594205Y524409D02*
X604795D01*
X594205D02*
Y545590D01*
X604795D01*
X374339Y363653D02*
Y363732D01*
Y363653D02*
X383787D01*
Y364047D01*
Y379559D02*
Y383339D01*
X374339D02*
X383787D01*
X374339Y383063D02*
Y383339D01*
X727779Y465764D02*
Y467929D01*
Y465764D02*
X733685D01*
X744315D02*
X749827D01*
X744315Y495291D02*
X749827D01*
X727779D02*
X733685D01*
X727779Y493126D02*
Y495291D01*
X749827Y465764D02*
Y495291D01*
X708500Y520673D02*
X716500D01*
Y496673D02*
Y520673D01*
X708500Y496673D02*
X716500D01*
X708500D02*
Y520673D01*
X712500D02*
Y524673D01*
Y492673D02*
Y496673D01*
X505847Y566653D02*
Y573347D01*
X499154Y566653D02*
Y573347D01*
X396169Y392232D02*
X404831D01*
X396169Y383768D02*
X404831D01*
X375768Y351169D02*
Y359831D01*
X384232Y351169D02*
Y359831D01*
X414268Y409669D02*
Y418331D01*
X422732Y409669D02*
Y418331D01*
X400768Y409717D02*
Y418378D01*
X409232Y409717D02*
Y418378D01*
X523669Y375768D02*
X532331D01*
X523669Y384232D02*
X532331D01*
X524169Y352768D02*
X532831D01*
X524169Y361232D02*
X532831D01*
X538169Y320232D02*
X546831D01*
X538169Y311768D02*
X546831D01*
X471669Y510268D02*
X480331D01*
X471669Y518732D02*
X480331D01*
X471669Y489768D02*
X480331D01*
X471669Y498232D02*
X480331D01*
X455496Y327768D02*
X464157D01*
X455496Y336232D02*
X464157D01*
X425543Y513232D02*
X434205D01*
X425543Y504768D02*
X434205D01*
X391732Y430169D02*
Y438831D01*
X383268Y430169D02*
Y438831D01*
X411232Y430669D02*
Y439331D01*
X402768Y430669D02*
Y439331D01*
X432299Y430909D02*
Y432091D01*
X423153Y228153D02*
X429846D01*
X423153Y234846D02*
X429846D01*
X726705Y270409D02*
X737295D01*
Y351590D01*
X726705D02*
X737295D01*
X726705Y270409D02*
Y351590D01*
X608000Y238000D02*
X668000D01*
X608000D02*
Y260520D01*
X668000Y238000D02*
Y260520D01*
X608000D02*
X668000D01*
X537910Y244705D02*
Y265295D01*
Y244705D02*
X589090D01*
X537910Y265295D02*
X589090D01*
Y244705D02*
Y265295D01*
X722449Y442500D02*
X728551D01*
Y437500D02*
Y442500D01*
X722449Y437500D02*
Y442500D01*
X731295Y386910D02*
Y408090D01*
X720705Y386910D02*
X731295D01*
X720705D02*
Y408090D01*
X731295D01*
D18*
X386503Y419499D02*
X385503Y420499D01*
X383504D01*
X382504Y419499D01*
Y415500D01*
X383504Y414501D01*
X385503D01*
X386503Y415500D01*
X388502Y414501D02*
X390501D01*
X389502D01*
Y420499D01*
X388502Y419499D01*
X393500D02*
X394500Y420499D01*
X396499D01*
X397499Y419499D01*
Y418500D01*
X396499Y417500D01*
X395500D01*
X396499D01*
X397499Y416500D01*
Y415500D01*
X396499Y414501D01*
X394500D01*
X393500Y415500D01*
X399499Y413501D02*
X403497D01*
X405497Y414501D02*
X407496D01*
X406496D01*
Y420499D01*
X405497Y419499D01*
X411400Y419598D02*
X410401Y420598D01*
X408401D01*
X407402Y419598D01*
Y415599D01*
X408401Y414600D01*
X410401D01*
X411400Y415599D01*
X413400Y414600D02*
X415399D01*
X414399D01*
Y420598D01*
X413400Y419598D01*
X421397Y414600D02*
Y420598D01*
X418398Y417599D01*
X422397D01*
X424396Y413600D02*
X428395D01*
X430394Y414600D02*
X432394D01*
X431394D01*
Y420598D01*
X430394Y419598D01*
X566600Y559698D02*
Y558698D01*
X568599Y556699D01*
X570599Y558698D01*
Y559698D01*
X568599Y556699D02*
Y553700D01*
X576597D02*
X572598D01*
X576597Y557699D01*
Y558698D01*
X575597Y559698D01*
X573598D01*
X572598Y558698D01*
X443800Y372998D02*
Y371998D01*
X445799Y369999D01*
X447799Y371998D01*
Y372998D01*
X445799Y369999D02*
Y367000D01*
X449798D02*
X451797D01*
X450798D01*
Y372998D01*
X449798Y371998D01*
X671600Y533798D02*
Y528800D01*
X672600Y527800D01*
X674599D01*
X675599Y528800D01*
Y533798D01*
X681597D02*
X679597Y532798D01*
X677598Y530799D01*
Y528800D01*
X678598Y527800D01*
X680597D01*
X681597Y528800D01*
Y529799D01*
X680597Y530799D01*
X677598D01*
X481800Y465698D02*
Y460700D01*
X482800Y459700D01*
X484799D01*
X485799Y460700D01*
Y465698D01*
X491797D02*
X487798D01*
Y462699D01*
X489797Y463699D01*
X490797D01*
X491797Y462699D01*
Y460700D01*
X490797Y459700D01*
X488798D01*
X487798Y460700D01*
X703502Y474172D02*
Y469174D01*
X704501Y468174D01*
X706501D01*
X707500Y469174D01*
Y474172D01*
X712499Y468174D02*
Y474172D01*
X709500Y471173D01*
X713498D01*
X411501Y323502D02*
X416499D01*
X417499Y324501D01*
Y326501D01*
X416499Y327500D01*
X411501D01*
X417499Y333498D02*
Y329500D01*
X413500Y333498D01*
X412501D01*
X411501Y332499D01*
Y330499D01*
X412501Y329500D01*
X389501Y234001D02*
X394499D01*
X395499Y235001D01*
Y237000D01*
X394499Y238000D01*
X389501D01*
X395499Y239999D02*
Y241999D01*
Y240999D01*
X389501D01*
X390501Y239999D01*
X631499Y440497D02*
Y436498D01*
Y438497D01*
X625501D01*
X631499Y434499D02*
X627500D01*
X625501Y432499D01*
X627500Y430500D01*
X631499D01*
X630499Y424502D02*
X631499Y425502D01*
Y427501D01*
X630499Y428501D01*
X629500D01*
X628500Y427501D01*
Y425502D01*
X627500Y424502D01*
X626501D01*
X625501Y425502D01*
Y427501D01*
X626501Y428501D01*
X625501Y422503D02*
Y420503D01*
Y421503D01*
X631499D01*
X630499Y422503D01*
X625997Y450501D02*
X621998D01*
X623997D01*
Y456499D01*
X619999D02*
Y450501D01*
X616999D01*
X616000Y451501D01*
Y453500D01*
X616999Y454500D01*
X619999D01*
X614001Y456499D02*
X612001D01*
X613001D01*
Y450501D01*
X614001Y451501D01*
X609002Y455499D02*
X608002Y456499D01*
X606003D01*
X605003Y455499D01*
Y451501D01*
X606003Y450501D01*
X608002D01*
X609002Y451501D01*
Y452500D01*
X608002Y453500D01*
X605003D01*
X570999Y477997D02*
Y473998D01*
Y475997D01*
X565001D01*
Y471999D02*
X570999D01*
Y468999D01*
X569999Y468000D01*
X568000D01*
X567000Y468999D01*
Y471999D01*
X565001Y466001D02*
Y464001D01*
Y465001D01*
X570999D01*
X569999Y466001D01*
Y461002D02*
X570999Y460002D01*
Y458003D01*
X569999Y457003D01*
X569000D01*
X568000Y458003D01*
X567000Y457003D01*
X566001D01*
X565001Y458003D01*
Y460002D01*
X566001Y461002D01*
X567000D01*
X568000Y460002D01*
X569000Y461002D01*
X569999D01*
X568000Y460002D02*
Y458003D01*
X584999Y471497D02*
Y467498D01*
Y469497D01*
X579001D01*
Y465498D02*
X584999D01*
Y462500D01*
X583999Y461500D01*
X582000D01*
X581000Y462500D01*
Y465498D01*
X579001Y459501D02*
Y457501D01*
Y458501D01*
X584999D01*
X583999Y459501D01*
X584999Y454502D02*
Y450503D01*
X583999D01*
X580001Y454502D01*
X579001D01*
X468001Y292503D02*
Y296502D01*
Y294503D01*
X473999D01*
Y298501D02*
X468001D01*
Y301501D01*
X469001Y302500D01*
X471000D01*
X472000Y301501D01*
Y298501D01*
X473999Y304500D02*
Y306499D01*
Y305499D01*
X468001D01*
X469001Y304500D01*
X468001Y313497D02*
X469001Y311497D01*
X471000Y309498D01*
X472999D01*
X473999Y310498D01*
Y312497D01*
X472999Y313497D01*
X472000D01*
X471000Y312497D01*
Y309498D01*
X515501Y309503D02*
Y313502D01*
Y311503D01*
X521499D01*
Y315501D02*
X515501D01*
Y318500D01*
X516501Y319500D01*
X518500D01*
X519500Y318500D01*
Y315501D01*
X521499Y321499D02*
Y323499D01*
Y322499D01*
X515501D01*
X516501Y321499D01*
X515501Y330497D02*
Y326498D01*
X518500D01*
X517500Y328497D01*
Y329497D01*
X518500Y330497D01*
X520499D01*
X521499Y329497D01*
Y327498D01*
X520499Y326498D01*
X508001Y268003D02*
Y272002D01*
Y270003D01*
X513999D01*
Y274002D02*
X508001D01*
Y277000D01*
X509001Y278000D01*
X511000D01*
X512000Y277000D01*
Y274002D01*
X513999Y279999D02*
Y281999D01*
Y280999D01*
X508001D01*
X509001Y279999D01*
X513999Y287997D02*
X508001D01*
X511000Y284998D01*
Y288997D01*
X497410Y314950D02*
Y318949D01*
Y316950D01*
X503408D01*
Y320949D02*
X497410D01*
Y323948D01*
X498410Y324947D01*
X500410D01*
X501409Y323948D01*
Y320949D01*
X503408Y326946D02*
Y328946D01*
Y327946D01*
X497410D01*
X498410Y326946D01*
Y331945D02*
X497410Y332945D01*
Y334944D01*
X498410Y335944D01*
X499410D01*
X500410Y334944D01*
Y333944D01*
Y334944D01*
X501409Y335944D01*
X502409D01*
X503408Y334944D01*
Y332945D01*
X502409Y331945D01*
X489501Y286503D02*
Y290502D01*
Y288503D01*
X495499D01*
Y292501D02*
X489501D01*
Y295500D01*
X490501Y296500D01*
X492500D01*
X493500Y295500D01*
Y292501D01*
X495499Y298499D02*
Y300499D01*
Y299499D01*
X489501D01*
X490501Y298499D01*
X495499Y307497D02*
Y303498D01*
X491500Y307497D01*
X490501D01*
X489501Y306497D01*
Y304498D01*
X490501Y303498D01*
X477501Y330003D02*
Y334002D01*
Y332002D01*
X483499D01*
Y336001D02*
X477501D01*
Y339000D01*
X478501Y340000D01*
X480500D01*
X481500Y339000D01*
Y336001D01*
X483499Y341999D02*
Y343999D01*
Y342999D01*
X477501D01*
X478501Y341999D01*
X483499Y346998D02*
Y348997D01*
Y347997D01*
X477501D01*
X478501Y346998D01*
X611497Y440501D02*
X607498D01*
X609497D01*
Y446499D01*
X605499D02*
Y440501D01*
X602499D01*
X601500Y441501D01*
Y443500D01*
X602499Y444500D01*
X605499D01*
X599501Y446499D02*
X597501D01*
X598501D01*
Y440501D01*
X599501Y441501D01*
X594502D02*
X593502Y440501D01*
X591503D01*
X590503Y441501D01*
Y445499D01*
X591503Y446499D01*
X593502D01*
X594502Y445499D01*
Y441501D01*
X467900Y574098D02*
X471899D01*
X469899D01*
Y568100D01*
X473898D02*
Y574098D01*
X476897D01*
X477897Y573098D01*
Y571099D01*
X476897Y570099D01*
X473898D01*
X479896Y569100D02*
X480896Y568100D01*
X482895D01*
X483895Y569100D01*
Y573098D01*
X482895Y574098D01*
X480896D01*
X479896Y573098D01*
Y572099D01*
X480896Y571099D01*
X483895D01*
X479501Y353003D02*
Y357001D01*
Y355002D01*
X485499D01*
Y359001D02*
X479501D01*
Y362000D01*
X480501Y362999D01*
X482500D01*
X483500Y362000D01*
Y359001D01*
X480501Y364999D02*
X479501Y365998D01*
Y367998D01*
X480501Y368997D01*
X481500D01*
X482500Y367998D01*
X483500Y368997D01*
X484499D01*
X485499Y367998D01*
Y365998D01*
X484499Y364999D01*
X483500D01*
X482500Y365998D01*
X481500Y364999D01*
X480501D01*
X482500Y365998D02*
Y367998D01*
X470501Y314503D02*
Y318501D01*
Y316502D01*
X476499D01*
Y320501D02*
X470501D01*
Y323500D01*
X471501Y324499D01*
X473500D01*
X474500Y323500D01*
Y320501D01*
X470501Y326499D02*
Y330497D01*
X471501D01*
X475499Y326499D01*
X476499D01*
X460501Y481003D02*
Y485001D01*
Y483002D01*
X466499D01*
Y487001D02*
X460501D01*
Y490000D01*
X461501Y490999D01*
X463500D01*
X464500Y490000D01*
Y487001D01*
X460501Y496997D02*
X461501Y494998D01*
X463500Y492999D01*
X465499D01*
X466499Y493998D01*
Y495998D01*
X465499Y496997D01*
X464500D01*
X463500Y495998D01*
Y492999D01*
X452001Y480003D02*
Y484001D01*
Y482002D01*
X457999D01*
Y486001D02*
X452001D01*
Y489000D01*
X453001Y489999D01*
X455000D01*
X456000Y489000D01*
Y486001D01*
X452001Y495997D02*
Y491999D01*
X455000D01*
X454000Y493998D01*
Y494998D01*
X455000Y495997D01*
X456999D01*
X457999Y494998D01*
Y492998D01*
X456999Y491999D01*
X436001Y474503D02*
Y478501D01*
Y476502D01*
X441999D01*
Y480501D02*
X436001D01*
Y483500D01*
X437001Y484499D01*
X439000D01*
X440000Y483500D01*
Y480501D01*
X441999Y489498D02*
X436001D01*
X439000Y486499D01*
Y490497D01*
X433176Y248999D02*
X437175D01*
X435175D01*
Y243001D01*
X439174D02*
Y248999D01*
X442173D01*
X443173Y247999D01*
Y246000D01*
X442173Y245000D01*
X439174D01*
X445172Y247999D02*
X446172Y248999D01*
X448171D01*
X449171Y247999D01*
Y247000D01*
X448171Y246000D01*
X447171D01*
X448171D01*
X449171Y245000D01*
Y244001D01*
X448171Y243001D01*
X446172D01*
X445172Y244001D01*
X451003Y254999D02*
X455001D01*
X453002D01*
Y249001D01*
X457001D02*
Y254999D01*
X460000D01*
X460999Y253999D01*
Y252000D01*
X460000Y251000D01*
X457001D01*
X466997Y249001D02*
X462999D01*
X466997Y253000D01*
Y253999D01*
X465998Y254999D01*
X463998D01*
X462999Y253999D01*
X467700Y280598D02*
X471699D01*
X469699D01*
Y274600D01*
X473698D02*
Y280598D01*
X476697D01*
X477697Y279598D01*
Y277599D01*
X476697Y276599D01*
X473698D01*
X479696Y274600D02*
X481696D01*
X480696D01*
Y280598D01*
X479696Y279598D01*
X428001Y280501D02*
X427001Y279502D01*
Y277502D01*
X428001Y276503D01*
X429000D01*
X430000Y277502D01*
Y279502D01*
X431000Y280501D01*
X431999D01*
X432999Y279502D01*
Y277502D01*
X431999Y276503D01*
X427001Y282501D02*
X432999D01*
X431000Y284500D01*
X432999Y286499D01*
X427001D01*
X432999Y292497D02*
Y288499D01*
X429000Y292497D01*
X428001D01*
X427001Y291498D01*
Y289498D01*
X428001Y288499D01*
X403299Y505398D02*
X402299Y506398D01*
X400300D01*
X399300Y505398D01*
Y504399D01*
X400300Y503399D01*
X402299D01*
X403299Y502399D01*
Y501400D01*
X402299Y500400D01*
X400300D01*
X399300Y501400D01*
X405298Y506398D02*
Y500400D01*
X407297Y502399D01*
X409297Y500400D01*
Y506398D01*
X411296Y500400D02*
X413296D01*
X412296D01*
Y506398D01*
X411296Y505398D01*
X410497Y268999D02*
Y263001D01*
X407498D01*
X406499Y264001D01*
Y266000D01*
X407498Y267000D01*
X410497D01*
X408498D02*
X406499Y268999D01*
X400501D02*
X404499D01*
X400501Y265000D01*
Y264001D01*
X401500Y263001D01*
X403500D01*
X404499Y264001D01*
X398501Y263001D02*
X394503D01*
Y264001D01*
X398501Y267999D01*
Y268999D01*
X410997Y289499D02*
Y283501D01*
X407998D01*
X406999Y284501D01*
Y286500D01*
X407998Y287500D01*
X410997D01*
X408998D02*
X406999Y289499D01*
X401001D02*
X404999D01*
X401001Y285500D01*
Y284501D01*
X402000Y283501D01*
X404000D01*
X404999Y284501D01*
X395003Y283501D02*
X397002Y284501D01*
X399001Y286500D01*
Y288499D01*
X398002Y289499D01*
X396002D01*
X395003Y288499D01*
Y287500D01*
X396002Y286500D01*
X399001D01*
X405497Y305499D02*
Y299501D01*
X402498D01*
X401499Y300501D01*
Y302500D01*
X402498Y303500D01*
X405497D01*
X403498D02*
X401499Y305499D01*
X395501D02*
X399499D01*
X395501Y301500D01*
Y300501D01*
X396500Y299501D01*
X398500D01*
X399499Y300501D01*
X389503Y299501D02*
X393501D01*
Y302500D01*
X391502Y301500D01*
X390502D01*
X389503Y302500D01*
Y304499D01*
X390502Y305499D01*
X392502D01*
X393501Y304499D01*
X361501Y315497D02*
X367499D01*
Y312498D01*
X366499Y311499D01*
X364500D01*
X363500Y312498D01*
Y315497D01*
Y313498D02*
X361501Y311499D01*
Y305501D02*
Y309499D01*
X365500Y305501D01*
X366499D01*
X367499Y306500D01*
Y308500D01*
X366499Y309499D01*
X361501Y300502D02*
X367499D01*
X364500Y303501D01*
Y299503D01*
X423497Y379999D02*
Y374001D01*
X420498D01*
X419499Y375001D01*
Y377000D01*
X420498Y378000D01*
X423497D01*
X421498D02*
X419499Y379999D01*
X413501D02*
X417499D01*
X413501Y376000D01*
Y375001D01*
X414500Y374001D01*
X416500D01*
X417499Y375001D01*
X411501D02*
X410502Y374001D01*
X408502D01*
X407503Y375001D01*
Y376000D01*
X408502Y377000D01*
X409502D01*
X408502D01*
X407503Y378000D01*
Y378999D01*
X408502Y379999D01*
X410502D01*
X411501Y378999D01*
X422997Y370499D02*
Y364501D01*
X419998D01*
X418999Y365501D01*
Y367500D01*
X419998Y368500D01*
X422997D01*
X420998D02*
X418999Y370499D01*
X413001D02*
X416999D01*
X413001Y366500D01*
Y365501D01*
X414000Y364501D01*
X416000D01*
X416999Y365501D01*
X407003Y370499D02*
X411001D01*
X407003Y366500D01*
Y365501D01*
X408002Y364501D01*
X410002D01*
X411001Y365501D01*
X420998Y362326D02*
Y356328D01*
X417999D01*
X416999Y357327D01*
Y359327D01*
X417999Y360327D01*
X420998D01*
X418998D02*
X416999Y362326D01*
X411001D02*
X415000D01*
X411001Y358327D01*
Y357327D01*
X412001Y356328D01*
X414000D01*
X415000Y357327D01*
X409002Y362326D02*
X407002D01*
X408002D01*
Y356328D01*
X409002Y357327D01*
X511499Y498503D02*
X505501D01*
Y501502D01*
X506501Y502501D01*
X508500D01*
X509500Y501502D01*
Y498503D01*
Y500502D02*
X511499Y502501D01*
Y508499D02*
Y504501D01*
X507500Y508499D01*
X506501D01*
X505501Y507500D01*
Y505500D01*
X506501Y504501D01*
Y510499D02*
X505501Y511498D01*
Y513498D01*
X506501Y514497D01*
X510499D01*
X511499Y513498D01*
Y511498D01*
X510499Y510499D01*
X506501D01*
X502499Y500002D02*
X496501D01*
Y503001D01*
X497501Y504001D01*
X499500D01*
X500500Y503001D01*
Y500002D01*
Y502002D02*
X502499Y504001D01*
Y506001D02*
Y508000D01*
Y507000D01*
X496501D01*
X497501Y506001D01*
X501499Y510999D02*
X502499Y511999D01*
Y513998D01*
X501499Y514998D01*
X497501D01*
X496501Y513998D01*
Y511999D01*
X497501Y510999D01*
X498500D01*
X499500Y511999D01*
Y514998D01*
X498998Y558499D02*
Y552501D01*
X495998D01*
X494999Y553501D01*
Y555500D01*
X495998Y556500D01*
X498998D01*
X496998D02*
X494999Y558499D01*
X493000D02*
X491000D01*
X492000D01*
Y552501D01*
X493000Y553501D01*
X488001D02*
X487002Y552501D01*
X485002D01*
X484002Y553501D01*
Y554500D01*
X485002Y555500D01*
X484002Y556500D01*
Y557499D01*
X485002Y558499D01*
X487002D01*
X488001Y557499D01*
Y556500D01*
X487002Y555500D01*
X488001Y554500D01*
Y553501D01*
X487002Y555500D02*
X485002D01*
X457998Y421499D02*
Y415501D01*
X454998D01*
X453999Y416501D01*
Y418500D01*
X454998Y419500D01*
X457998D01*
X455998D02*
X453999Y421499D01*
X452000D02*
X450000D01*
X451000D01*
Y415501D01*
X452000Y416501D01*
X447001Y415501D02*
X443002D01*
Y416501D01*
X447001Y420499D01*
Y421499D01*
X688002Y477174D02*
Y483172D01*
X691002D01*
X692001Y482173D01*
Y480173D01*
X691002Y479174D01*
X688002D01*
X690002D02*
X692001Y477174D01*
X694000D02*
X696000D01*
X695000D01*
Y483172D01*
X694000Y482173D01*
X702998Y483172D02*
X700998Y482173D01*
X698999Y480173D01*
Y478174D01*
X699999Y477174D01*
X701998D01*
X702998Y478174D01*
Y479174D01*
X701998Y480173D01*
X698999D01*
X454498Y428999D02*
Y423001D01*
X451499D01*
X450499Y424001D01*
Y426000D01*
X451499Y427000D01*
X454498D01*
X452498D02*
X450499Y428999D01*
X448499D02*
X446500D01*
X447500D01*
Y423001D01*
X448499Y424001D01*
X439502Y423001D02*
X443501D01*
Y426000D01*
X441502Y425000D01*
X440502D01*
X439502Y426000D01*
Y427999D01*
X440502Y428999D01*
X442501D01*
X443501Y427999D01*
X689502Y461174D02*
Y467172D01*
X692501D01*
X693501Y466173D01*
Y464173D01*
X692501Y463173D01*
X689502D01*
X691502D02*
X693501Y461174D01*
X695501D02*
X697500D01*
X696500D01*
Y467172D01*
X695501Y466173D01*
X703498Y461174D02*
Y467172D01*
X700499Y464173D01*
X704498D01*
X416498Y519499D02*
Y513501D01*
X413498D01*
X412499Y514501D01*
Y516500D01*
X413498Y517500D01*
X416498D01*
X414498D02*
X412499Y519499D01*
X410499D02*
X408500D01*
X409500D01*
Y513501D01*
X410499Y514501D01*
X405501D02*
X404501Y513501D01*
X402502D01*
X401502Y514501D01*
Y515500D01*
X402502Y516500D01*
X403502D01*
X402502D01*
X401502Y517500D01*
Y518499D01*
X402502Y519499D01*
X404501D01*
X405501Y518499D01*
X442700Y501400D02*
Y507398D01*
X445699D01*
X446699Y506398D01*
Y504399D01*
X445699Y503399D01*
X442700D01*
X444699D02*
X446699Y501400D01*
X448698D02*
X450697D01*
X449698D01*
Y507398D01*
X448698Y506398D01*
X457695Y501400D02*
X453696D01*
X457695Y505399D01*
Y506398D01*
X456696Y507398D01*
X454696D01*
X453696Y506398D01*
X352501Y310998D02*
X358499D01*
Y307999D01*
X357499Y307000D01*
X355500D01*
X354500Y307999D01*
Y310998D01*
Y308999D02*
X352501Y307000D01*
X358499Y301002D02*
Y305000D01*
X355500D01*
X356500Y303001D01*
Y302001D01*
X355500Y301002D01*
X353501D01*
X352501Y302001D01*
Y304001D01*
X353501Y305000D01*
X369001Y308998D02*
X374999D01*
Y305999D01*
X373999Y305000D01*
X372000D01*
X371000Y305999D01*
Y308998D01*
Y306999D02*
X369001Y305000D01*
Y300001D02*
X374999D01*
X372000Y303000D01*
Y299002D01*
X382499Y299502D02*
X376501D01*
Y302501D01*
X377501Y303500D01*
X379500D01*
X380500Y302501D01*
Y299502D01*
Y301501D02*
X382499Y303500D01*
X377501Y305500D02*
X376501Y306499D01*
Y308499D01*
X377501Y309498D01*
X378500D01*
X379500Y308499D01*
Y307499D01*
Y308499D01*
X380500Y309498D01*
X381499D01*
X382499Y308499D01*
Y306499D01*
X381499Y305500D01*
X389999Y274502D02*
X384001D01*
Y277501D01*
X385001Y278500D01*
X387000D01*
X388000Y277501D01*
Y274502D01*
Y276501D02*
X389999Y278500D01*
Y284498D02*
Y280500D01*
X386000Y284498D01*
X385001D01*
X384001Y283499D01*
Y281499D01*
X385001Y280500D01*
X416501Y246501D02*
Y252499D01*
X419500D01*
X420500Y251499D01*
Y249500D01*
X419500Y248500D01*
X416501D01*
X418501D02*
X420500Y246501D01*
X422499D02*
X424499D01*
X423499D01*
Y252499D01*
X422499Y251499D01*
X498500Y546999D02*
Y543001D01*
X499499Y542001D01*
X501499D01*
X502498Y543001D01*
Y546999D01*
X501499Y547999D01*
X499499D01*
X500499Y546000D02*
X498500Y547999D01*
X499499D02*
X498500Y546999D01*
X492502Y547999D02*
X496500D01*
X492502Y544000D01*
Y543001D01*
X493501Y542001D01*
X495501D01*
X496500Y543001D01*
X407000Y233501D02*
Y237499D01*
X406000Y238499D01*
X404001D01*
X403001Y237499D01*
Y233501D01*
X404001Y232501D01*
X406000D01*
X405001Y234500D02*
X407000Y232501D01*
X406000D02*
X407000Y233501D01*
X408999Y232501D02*
X410999D01*
X409999D01*
Y238499D01*
X408999Y237499D01*
X532001Y328002D02*
X537999D01*
Y332000D01*
X532001Y337998D02*
Y334000D01*
X535000D01*
X534000Y335999D01*
Y336999D01*
X535000Y337998D01*
X536999D01*
X537999Y336999D01*
Y334999D01*
X536999Y334000D01*
X321501Y261501D02*
X327499D01*
Y265500D01*
Y267499D02*
Y269499D01*
Y268499D01*
X321501D01*
X322501Y267499D01*
X607001Y532001D02*
Y530002D01*
Y531002D01*
X611999D01*
X612999Y530002D01*
Y529002D01*
X611999Y528002D01*
X612999Y534000D02*
Y536000D01*
Y535000D01*
X607001D01*
X608001Y534000D01*
Y538999D02*
X607001Y539998D01*
Y541998D01*
X608001Y542998D01*
X609000D01*
X610000Y541998D01*
X611000Y542998D01*
X611999D01*
X612999Y541998D01*
Y539998D01*
X611999Y538999D01*
X611000D01*
X610000Y539998D01*
X609000Y538999D01*
X608001D01*
X610000Y539998D02*
Y541998D01*
X378099Y392698D02*
X376099D01*
X377099D01*
Y387700D01*
X376099Y386700D01*
X375100D01*
X374100Y387700D01*
X380098Y386700D02*
X382097D01*
X381098D01*
Y392698D01*
X380098Y391698D01*
X385096Y392698D02*
X389095D01*
Y391698D01*
X385096Y387700D01*
Y386700D01*
X727699Y543098D02*
X725699D01*
X726699D01*
Y538100D01*
X725699Y537100D01*
X724700D01*
X723700Y538100D01*
X729698Y537100D02*
X731697D01*
X730698D01*
Y543098D01*
X729698Y542098D01*
X738695Y543098D02*
X736696Y542098D01*
X734696Y540099D01*
Y538100D01*
X735696Y537100D01*
X737696D01*
X738695Y538100D01*
Y539099D01*
X737696Y540099D01*
X734696D01*
X681501Y297499D02*
X679502D01*
X680502D01*
Y292501D01*
X679502Y291501D01*
X678502D01*
X677502Y292501D01*
X683500Y291501D02*
X685500D01*
X684500D01*
Y297499D01*
X683500Y296499D01*
X692498Y297499D02*
X688499D01*
Y294500D01*
X690498Y295500D01*
X691498D01*
X692498Y294500D01*
Y292501D01*
X691498Y291501D01*
X689499D01*
X688499Y292501D01*
X678501Y347499D02*
X676502D01*
X677501D01*
Y342501D01*
X676502Y341501D01*
X675502D01*
X674502Y342501D01*
X680501Y341501D02*
X682500D01*
X681500D01*
Y347499D01*
X680501Y346499D01*
X688498Y341501D02*
Y347499D01*
X685499Y344500D01*
X689498D01*
X680501Y284999D02*
X678502D01*
X679501D01*
Y280001D01*
X678502Y279001D01*
X677502D01*
X676502Y280001D01*
X682501Y279001D02*
X684500D01*
X683500D01*
Y284999D01*
X682501Y283999D01*
X687499D02*
X688498Y284999D01*
X690498D01*
X691498Y283999D01*
Y283000D01*
X690498Y282000D01*
X689498D01*
X690498D01*
X691498Y281000D01*
Y280001D01*
X690498Y279001D01*
X688498D01*
X687499Y280001D01*
X676001Y334499D02*
X674002D01*
X675001D01*
Y329501D01*
X674002Y328501D01*
X673002D01*
X672002Y329501D01*
X678000Y328501D02*
X680000D01*
X679000D01*
Y334499D01*
X678000Y333499D01*
X686998Y328501D02*
X682999D01*
X686998Y332500D01*
Y333499D01*
X685998Y334499D01*
X683998D01*
X682999Y333499D01*
X679501Y411501D02*
Y409502D01*
Y410501D01*
X684499D01*
X685499Y409502D01*
Y408502D01*
X684499Y407502D01*
X685499Y413500D02*
Y415499D01*
Y414500D01*
X679501D01*
X680501Y413500D01*
X685499Y418499D02*
Y420498D01*
Y419498D01*
X679501D01*
X680501Y418499D01*
X682001Y271499D02*
X680002D01*
X681002D01*
Y266501D01*
X680002Y265501D01*
X679002D01*
X678002Y266501D01*
X684000Y265501D02*
X686000D01*
X685000D01*
Y271499D01*
X684000Y270499D01*
X688999D02*
X689998Y271499D01*
X691998D01*
X692998Y270499D01*
Y266501D01*
X691998Y265501D01*
X689998D01*
X688999Y266501D01*
Y270499D01*
X682500Y319999D02*
X680501D01*
X681501D01*
Y315001D01*
X680501Y314001D01*
X679501D01*
X678502Y315001D01*
X684500D02*
X685499Y314001D01*
X687499D01*
X688498Y315001D01*
Y318999D01*
X687499Y319999D01*
X685499D01*
X684500Y318999D01*
Y318000D01*
X685499Y317000D01*
X688498D01*
X682000Y356499D02*
X680001D01*
X681001D01*
Y351501D01*
X680001Y350501D01*
X679001D01*
X678002Y351501D01*
X684000Y355499D02*
X684999Y356499D01*
X686999D01*
X687998Y355499D01*
Y354500D01*
X686999Y353500D01*
X687998Y352500D01*
Y351501D01*
X686999Y350501D01*
X684999D01*
X684000Y351501D01*
Y352500D01*
X684999Y353500D01*
X684000Y354500D01*
Y355499D01*
X684999Y353500D02*
X686999D01*
X687000Y255499D02*
X685001D01*
X686001D01*
Y250501D01*
X685001Y249501D01*
X684001D01*
X683002Y250501D01*
X689000Y255499D02*
X692998D01*
Y254499D01*
X689000Y250501D01*
Y249501D01*
X724799Y417998D02*
X722799D01*
X723799D01*
Y413000D01*
X722799Y412000D01*
X721800D01*
X720800Y413000D01*
X730797Y417998D02*
X728797Y416998D01*
X726798Y414999D01*
Y413000D01*
X727798Y412000D01*
X729797D01*
X730797Y413000D01*
Y413999D01*
X729797Y414999D01*
X726798D01*
X538299Y275198D02*
X536299D01*
X537299D01*
Y270200D01*
X536299Y269200D01*
X535300D01*
X534300Y270200D01*
X544297Y275198D02*
X540298D01*
Y272199D01*
X542297Y273199D01*
X543297D01*
X544297Y272199D01*
Y270200D01*
X543297Y269200D01*
X541298D01*
X540298Y270200D01*
X730799Y361498D02*
X728799D01*
X729799D01*
Y356500D01*
X728799Y355500D01*
X727800D01*
X726800Y356500D01*
X735797Y355500D02*
Y361498D01*
X732798Y358499D01*
X736797D01*
X694001Y382000D02*
Y380001D01*
Y381001D01*
X698999D01*
X699999Y380001D01*
Y379001D01*
X698999Y378002D01*
X695001Y384000D02*
X694001Y384999D01*
Y386999D01*
X695001Y387998D01*
X696000D01*
X697000Y386999D01*
Y385999D01*
Y386999D01*
X698000Y387998D01*
X698999D01*
X699999Y386999D01*
Y384999D01*
X698999Y384000D01*
X612499Y269998D02*
X610499D01*
X611499D01*
Y265000D01*
X610499Y264000D01*
X609500D01*
X608500Y265000D01*
X618497Y264000D02*
X614498D01*
X618497Y267999D01*
Y268998D01*
X617497Y269998D01*
X615498D01*
X614498Y268998D01*
X348499Y227500D02*
Y229499D01*
Y228500D01*
X343501D01*
X342501Y229499D01*
Y230499D01*
X343501Y231499D01*
X342501Y225501D02*
Y223501D01*
Y224501D01*
X348499D01*
X347499Y225501D01*
X712000Y510672D02*
X708002D01*
Y507673D01*
X710001D01*
X708002D01*
Y504674D01*
X714000Y510672D02*
Y504674D01*
X716999D01*
X717998Y505674D01*
Y506673D01*
X716999Y507673D01*
X714000D01*
X716999D01*
X717998Y508673D01*
Y509673D01*
X716999Y510672D01*
X714000D01*
X495998Y566001D02*
Y571999D01*
X492999D01*
X492000Y570999D01*
Y567001D01*
X492999Y566001D01*
X495998D01*
X490000Y567001D02*
X489001Y566001D01*
X487001D01*
X486002Y567001D01*
Y568000D01*
X487001Y569000D01*
X488001D01*
X487001D01*
X486002Y570000D01*
Y570999D01*
X487001Y571999D01*
X489001D01*
X490000Y570999D01*
X723000Y457498D02*
Y451500D01*
X725999D01*
X726999Y452500D01*
Y456498D01*
X725999Y457498D01*
X723000D01*
X732997Y451500D02*
X728998D01*
X732997Y455499D01*
Y456498D01*
X731997Y457498D01*
X729998D01*
X728998Y456498D01*
X422127Y242499D02*
Y236501D01*
X425126D01*
X426126Y237501D01*
Y241499D01*
X425126Y242499D01*
X422127D01*
X428125Y236501D02*
X430125D01*
X429125D01*
Y242499D01*
X428125Y241499D01*
X595499Y494001D02*
X596498Y493001D01*
X598498D01*
X599497Y494001D01*
Y497999D01*
X598498Y498999D01*
X596498D01*
X595499Y497999D01*
X589501Y498999D02*
X593499D01*
X589501Y495000D01*
Y494001D01*
X590500Y493001D01*
X592500D01*
X593499Y494001D01*
X587501Y493001D02*
X583503D01*
Y494001D01*
X587501Y497999D01*
Y498999D01*
X563999Y491001D02*
X564998Y490001D01*
X566998D01*
X567997Y491001D01*
Y494999D01*
X566998Y495999D01*
X564998D01*
X563999Y494999D01*
X558001Y495999D02*
X561999D01*
X558001Y492000D01*
Y491001D01*
X559000Y490001D01*
X561000D01*
X561999Y491001D01*
X552003Y490001D02*
X554002Y491001D01*
X556001Y493000D01*
Y494999D01*
X555002Y495999D01*
X553002D01*
X552003Y494999D01*
Y494000D01*
X553002Y493000D01*
X556001D01*
X418999Y385001D02*
X419998Y384001D01*
X421998D01*
X422997Y385001D01*
Y388999D01*
X421998Y389999D01*
X419998D01*
X418999Y388999D01*
X413001Y389999D02*
X416999D01*
X413001Y386000D01*
Y385001D01*
X414000Y384001D01*
X416000D01*
X416999Y385001D01*
X407003Y384001D02*
X411001D01*
Y387000D01*
X409002Y386000D01*
X408002D01*
X407003Y387000D01*
Y388999D01*
X408002Y389999D01*
X410002D01*
X411001Y388999D01*
X365501Y352001D02*
X364501Y351002D01*
Y349002D01*
X365501Y348003D01*
X369499D01*
X370499Y349002D01*
Y351002D01*
X369499Y352001D01*
X370499Y357999D02*
Y354001D01*
X366500Y357999D01*
X365501D01*
X364501Y357000D01*
Y355000D01*
X365501Y354001D01*
X370499Y362998D02*
X364501D01*
X367500Y359999D01*
Y363997D01*
X409499Y417046D02*
X410499Y418046D01*
Y420045D01*
X409499Y421045D01*
X405501D01*
X404501Y420045D01*
Y418046D01*
X405501Y417046D01*
X404501Y411048D02*
Y415047D01*
X408500Y411048D01*
X409499D01*
X410499Y412048D01*
Y414047D01*
X409499Y415047D01*
Y409049D02*
X410499Y408049D01*
Y406049D01*
X409499Y405050D01*
X408500D01*
X407500Y406049D01*
Y407049D01*
Y406049D01*
X406500Y405050D01*
X405501D01*
X404501Y406049D01*
Y408049D01*
X405501Y409049D01*
X397999Y416046D02*
X398999Y417046D01*
Y419045D01*
X397999Y420045D01*
X394001D01*
X393001Y419045D01*
Y417046D01*
X394001Y416046D01*
X393001Y410048D02*
Y414047D01*
X397000Y410048D01*
X397999D01*
X398999Y411048D01*
Y413047D01*
X397999Y414047D01*
X393001Y404050D02*
Y408048D01*
X397000Y404050D01*
X397999D01*
X398999Y405050D01*
Y407049D01*
X397999Y408048D01*
X694199Y537398D02*
X693199Y538398D01*
X691200D01*
X690200Y537398D01*
Y533400D01*
X691200Y532400D01*
X693199D01*
X694199Y533400D01*
X700197Y532400D02*
X696198D01*
X700197Y536399D01*
Y537398D01*
X699197Y538398D01*
X697198D01*
X696198Y537398D01*
X702196Y532400D02*
X704195D01*
X703196D01*
Y538398D01*
X702196Y537398D01*
X655199Y535898D02*
X654199Y536898D01*
X652200D01*
X651200Y535898D01*
Y531900D01*
X652200Y530900D01*
X654199D01*
X655199Y531900D01*
X661197Y530900D02*
X657198D01*
X661197Y534899D01*
Y535898D01*
X660197Y536898D01*
X658198D01*
X657198Y535898D01*
X663196Y530900D02*
X665196D01*
X664196D01*
Y536898D01*
X663196Y535898D01*
X524454Y371999D02*
X523454Y372999D01*
X521455D01*
X520455Y371999D01*
Y368001D01*
X521455Y367001D01*
X523454D01*
X524454Y368001D01*
X526453Y367001D02*
X528453D01*
X527453D01*
Y372999D01*
X526453Y371999D01*
X531452Y368001D02*
X532451Y367001D01*
X534451D01*
X535450Y368001D01*
Y371999D01*
X534451Y372999D01*
X532451D01*
X531452Y371999D01*
Y371000D01*
X532451Y370000D01*
X535450D01*
X526001Y349499D02*
X525001Y350499D01*
X523002D01*
X522002Y349499D01*
Y345501D01*
X523002Y344501D01*
X525001D01*
X526001Y345501D01*
X528000Y344501D02*
X530000D01*
X529000D01*
Y350499D01*
X528000Y349499D01*
X532999D02*
X533998Y350499D01*
X535998D01*
X536998Y349499D01*
Y348500D01*
X535998Y347500D01*
X536998Y346500D01*
Y345501D01*
X535998Y344501D01*
X533998D01*
X532999Y345501D01*
Y346500D01*
X533998Y347500D01*
X532999Y348500D01*
Y349499D01*
X533998Y347500D02*
X535998D01*
X540501Y329999D02*
X539501Y330999D01*
X537502D01*
X536502Y329999D01*
Y326001D01*
X537502Y325001D01*
X539501D01*
X540501Y326001D01*
X542500Y325001D02*
X544500D01*
X543500D01*
Y330999D01*
X542500Y329999D01*
X547499Y330999D02*
X551498D01*
Y329999D01*
X547499Y326001D01*
Y325001D01*
X474501Y526999D02*
X473501Y527999D01*
X471502D01*
X470502Y526999D01*
Y523001D01*
X471502Y522001D01*
X473501D01*
X474501Y523001D01*
X476501Y522001D02*
X478500D01*
X477500D01*
Y527999D01*
X476501Y526999D01*
X485498Y527999D02*
X483498Y526999D01*
X481499Y525000D01*
Y523001D01*
X482499Y522001D01*
X484498D01*
X485498Y523001D01*
Y524000D01*
X484498Y525000D01*
X481499D01*
X473001Y505999D02*
X472002Y506999D01*
X470002D01*
X469002Y505999D01*
Y502001D01*
X470002Y501001D01*
X472002D01*
X473001Y502001D01*
X475000Y501001D02*
X477000D01*
X476000D01*
Y506999D01*
X475000Y505999D01*
X483998Y506999D02*
X479999D01*
Y504000D01*
X481998Y505000D01*
X482998D01*
X483998Y504000D01*
Y502001D01*
X482998Y501001D01*
X480999D01*
X479999Y502001D01*
X458899Y344598D02*
X457899Y345598D01*
X455900D01*
X454900Y344598D01*
Y340600D01*
X455900Y339600D01*
X457899D01*
X458899Y340600D01*
X460898Y339600D02*
X462897D01*
X461898D01*
Y345598D01*
X460898Y344598D01*
X468895Y339600D02*
Y345598D01*
X465896Y342599D01*
X469895D01*
X434001Y344499D02*
X433002Y345499D01*
X431002D01*
X430002Y344499D01*
Y340501D01*
X431002Y339501D01*
X433002D01*
X434001Y340501D01*
X436000Y339501D02*
X438000D01*
X437000D01*
Y345499D01*
X436000Y344499D01*
X440999D02*
X441998Y345499D01*
X443998D01*
X444998Y344499D01*
Y343500D01*
X443998Y342500D01*
X442998D01*
X443998D01*
X444998Y341500D01*
Y340501D01*
X443998Y339501D01*
X441998D01*
X440999Y340501D01*
X428999Y521598D02*
X427999Y522598D01*
X426000D01*
X425000Y521598D01*
Y517600D01*
X426000Y516600D01*
X427999D01*
X428999Y517600D01*
X430998Y516600D02*
X432997D01*
X431998D01*
Y522598D01*
X430998Y521598D01*
X439995Y516600D02*
X435996D01*
X439995Y520599D01*
Y521598D01*
X438996Y522598D01*
X436996D01*
X435996Y521598D01*
X395501Y433001D02*
X394501Y432001D01*
Y430002D01*
X395501Y429002D01*
X399499D01*
X400499Y430002D01*
Y432001D01*
X399499Y433001D01*
X400499Y435000D02*
Y437000D01*
Y436000D01*
X394501D01*
X395501Y435000D01*
X400499Y439998D02*
Y441998D01*
Y440998D01*
X394501D01*
X395501Y439998D01*
X417501Y432001D02*
X416501Y431002D01*
Y429002D01*
X417501Y428002D01*
X421499D01*
X422499Y429002D01*
Y431002D01*
X421499Y432001D01*
X422499Y434000D02*
Y436000D01*
Y435000D01*
X416501D01*
X417501Y434000D01*
Y438999D02*
X416501Y439998D01*
Y441998D01*
X417501Y442998D01*
X421499D01*
X422499Y441998D01*
Y439998D01*
X421499Y438999D01*
X417501D01*
X569001Y429500D02*
X568001Y428501D01*
Y426501D01*
X569001Y425502D01*
X572999D01*
X573999Y426501D01*
Y428501D01*
X572999Y429500D01*
Y431500D02*
X573999Y432499D01*
Y434499D01*
X572999Y435498D01*
X569001D01*
X568001Y434499D01*
Y432499D01*
X569001Y431500D01*
X570000D01*
X571000Y432499D01*
Y435498D01*
X600501Y430000D02*
X599501Y429001D01*
Y427001D01*
X600501Y426002D01*
X604499D01*
X605499Y427001D01*
Y429001D01*
X604499Y430000D01*
X600501Y432000D02*
X599501Y432999D01*
Y434999D01*
X600501Y435998D01*
X601500D01*
X602500Y434999D01*
X603500Y435998D01*
X604499D01*
X605499Y434999D01*
Y432999D01*
X604499Y432000D01*
X603500D01*
X602500Y432999D01*
X601500Y432000D01*
X600501D01*
X602500Y432999D02*
Y434999D01*
X341001Y278500D02*
X340001Y277501D01*
Y275501D01*
X341001Y274502D01*
X344999D01*
X345999Y275501D01*
Y277501D01*
X344999Y278500D01*
X341001Y280500D02*
X340001Y281499D01*
Y283499D01*
X341001Y284498D01*
X342000D01*
X343000Y283499D01*
Y282499D01*
Y283499D01*
X344000Y284498D01*
X344999D01*
X345999Y283499D01*
Y281499D01*
X344999Y280500D01*
X342501Y253500D02*
X341501Y252501D01*
Y250501D01*
X342501Y249502D01*
X346499D01*
X347499Y250501D01*
Y252501D01*
X346499Y253500D01*
X347499Y259498D02*
Y255500D01*
X343500Y259498D01*
X342501D01*
X341501Y258499D01*
Y256499D01*
X342501Y255500D01*
X342001Y240500D02*
X341001Y239500D01*
Y237501D01*
X342001Y236501D01*
X345999D01*
X346999Y237501D01*
Y239500D01*
X345999Y240500D01*
X346999Y242499D02*
Y244499D01*
Y243499D01*
X341001D01*
X342001Y242499D01*
X436498Y436501D02*
Y442499D01*
X432500D01*
X430500Y437501D02*
X429501Y436501D01*
X427501D01*
X426502Y437501D01*
Y438500D01*
X427501Y439500D01*
X428501D01*
X427501D01*
X426502Y440500D01*
Y441499D01*
X427501Y442499D01*
X429501D01*
X430500Y441499D01*
X742937Y502969D02*
X739001D01*
Y504936D01*
X739657Y505592D01*
X740969D01*
X741625Y504936D01*
Y502969D01*
X739657Y509528D02*
X739001Y508872D01*
Y507560D01*
X739657Y506904D01*
X742281D01*
X742937Y507560D01*
Y508872D01*
X742281Y509528D01*
X739001Y510840D02*
X742937D01*
Y512808D01*
X742281Y513464D01*
X741625D01*
X740969Y512808D01*
Y510840D01*
Y512808D01*
X740313Y513464D01*
X739657D01*
X739001Y512808D01*
Y510840D01*
Y521335D02*
Y518712D01*
X742937D01*
Y521335D01*
X740969Y518712D02*
Y520023D01*
X739001Y522647D02*
X742937D01*
Y524615D01*
X742281Y525271D01*
X739657D01*
X739001Y524615D01*
Y522647D01*
X739657Y529207D02*
X739001Y528551D01*
Y527239D01*
X739657Y526583D01*
X742281D01*
X742937Y527239D01*
Y528551D01*
X742281Y529207D01*
X740969D01*
Y527895D01*
X739001Y533143D02*
Y530519D01*
X742937D01*
Y533143D01*
X740969Y530519D02*
Y531831D01*
D19*
X375327Y321504D02*
G03*
X375327Y321504I-1181J0D01*
G01*
D143*
X369874Y313000D02*
G03*
X369874Y313000I-492J0D01*
G01*
X615992Y420264D02*
G03*
X615992Y420264I-492J0D01*
G01*
X380697Y274484D02*
G03*
X380697Y274484I-492J0D01*
G01*
X486764Y421701D02*
G03*
X486764Y421701I-492J0D01*
G01*
X418323Y264756D02*
G03*
X418323Y264756I-492J0D01*
G01*
X588835Y523673D02*
G03*
X588835Y523673I-492J0D01*
G01*
X687252Y514968D02*
G03*
X687252Y514968I-492J0D01*
G01*
X399748Y491996D02*
G03*
X399748Y491996I-492J0D01*
G01*
X387232Y366409D02*
G03*
X387232Y366409I-492J0D01*
G01*
X724138Y475410D02*
G03*
X724138Y475410I-492J0D01*
G01*
X502992Y562913D02*
G03*
X502992Y562913I-492J0D01*
G01*
X419906Y231500D02*
G03*
X419906Y231500I-492J0D01*
G01*
D144*
X591295Y441000D02*
G03*
X591295Y441000I-5295J0D01*
G01*
X577795Y447000D02*
G03*
X577795Y447000I-5295J0D01*
G01*
X601795Y455000D02*
G03*
X601795Y455000I-5295J0D01*
G01*
X565295Y449000D02*
G03*
X565295Y449000I-5295J0D01*
G01*
X453295Y479000D02*
G03*
X453295Y479000I-5295J0D01*
G01*
X507295Y308000D02*
G03*
X507295Y308000I-5295J0D01*
G01*
X513795Y327500D02*
G03*
X513795Y327500I-5295J0D01*
G01*
X486295Y305000D02*
G03*
X486295Y305000I-5295J0D01*
G01*
X528295Y305500D02*
G03*
X528295Y305500I-5295J0D01*
G01*
X515795Y299000D02*
G03*
X515795Y299000I-5295J0D01*
G01*
X496295Y336000D02*
G03*
X496295Y336000I-5295J0D01*
G01*
X478295Y559000D02*
G03*
X478295Y559000I-5295J0D01*
G01*
X497295Y353500D02*
G03*
X497295Y353500I-5295J0D01*
G01*
X488795Y324500D02*
G03*
X488795Y324500I-5295J0D01*
G01*
X476795Y479500D02*
G03*
X476795Y479500I-5295J0D01*
G01*
X464795Y474000D02*
G03*
X464795Y474000I-5295J0D01*
G01*
X445795Y256500D02*
G03*
X445795Y256500I-5295J0D01*
G01*
X464122Y263500D02*
G03*
X464122Y263500I-5295J0D01*
G01*
X478122Y265500D02*
G03*
X478122Y265500I-5295J0D01*
G01*
X397500Y255000D02*
X399468D01*
X398484D01*
Y260904D01*
X397500Y259920D01*
X395500Y248420D02*
X396484Y249404D01*
X398452D01*
X399436Y248420D01*
Y247436D01*
X398452Y246452D01*
X397468D01*
X398452D01*
X399436Y245468D01*
Y244484D01*
X398452Y243500D01*
X396484D01*
X395500Y244484D01*
X499185Y524543D02*
Y522575D01*
Y523559D01*
X505089D01*
X504105Y524543D01*
X494191D02*
X495175Y523559D01*
Y521592D01*
X494191Y520608D01*
X493207D01*
X492223Y521592D01*
Y522575D01*
Y521592D01*
X491240Y520608D01*
X490255D01*
X489272Y521592D01*
Y523559D01*
X490255Y524543D01*
D145*
X725624Y441500D02*
D03*
M02*
