G04*
G04 #@! TF.GenerationSoftware,Altium Limited,Altium Designer,22.0.2 (36)*
G04*
G04 Layer_Color=128*
%FSLAX25Y25*%
%MOIN*%
G70*
G04*
G04 #@! TF.SameCoordinates,5FA76A90-C183-4406-A071-8446DD7401C7*
G04*
G04*
G04 #@! TF.FilePolarity,Positive*
G04*
G01*
G75*
D10*
X717800Y471673D02*
X717133D01*
X717000Y471540D01*
Y471273D01*
X717133Y471140D01*
X717800D01*
X717000Y470474D02*
X717800D01*
X717400Y470873D01*
Y470340D01*
D12*
X744709Y458874D02*
Y502181D01*
D18*
X742937Y502969D02*
X739001D01*
Y504936D01*
X739657Y505592D01*
X740969D01*
X741625Y504936D01*
Y502969D01*
X739657Y509528D02*
X739001Y508872D01*
Y507560D01*
X739657Y506904D01*
X742281D01*
X742937Y507560D01*
Y508872D01*
X742281Y509528D01*
X739001Y510840D02*
X742937D01*
Y512808D01*
X742281Y513464D01*
X741625D01*
X740969Y512808D01*
Y510840D01*
Y512808D01*
X740313Y513464D01*
X739657D01*
X739001Y512808D01*
Y510840D01*
Y521335D02*
Y518712D01*
X742937D01*
Y521335D01*
X740969Y518712D02*
Y520023D01*
X739001Y522647D02*
X742937D01*
Y524615D01*
X742281Y525271D01*
X739657D01*
X739001Y524615D01*
Y522647D01*
X739657Y529207D02*
X739001Y528551D01*
Y527239D01*
X739657Y526583D01*
X742281D01*
X742937Y527239D01*
Y528551D01*
X742281Y529207D01*
X740969D01*
Y527895D01*
X739001Y533143D02*
Y530519D01*
X742937D01*
Y533143D01*
X740969Y530519D02*
Y531831D01*
D79*
X574000Y348031D02*
D03*
Y351969D02*
D03*
D148*
X558453Y343500D02*
D03*
X552547D02*
D03*
X557953Y364500D02*
D03*
X552047D02*
D03*
D151*
X593000Y298953D02*
D03*
Y293047D02*
D03*
X604500Y299406D02*
D03*
Y293500D02*
D03*
D154*
X605000Y351673D02*
D03*
Y348327D02*
D03*
X598500Y351673D02*
D03*
Y348327D02*
D03*
X592500Y352173D02*
D03*
Y348827D02*
D03*
X579500Y352673D02*
D03*
Y349327D02*
D03*
D156*
X597327Y282000D02*
D03*
X600673D02*
D03*
X614673Y349000D02*
D03*
X611327D02*
D03*
D222*
X588500Y309984D02*
D03*
X593500D02*
D03*
X598500D02*
D03*
X603500D02*
D03*
X608500D02*
D03*
Y334000D02*
D03*
X603500D02*
D03*
X598500D02*
D03*
X593500D02*
D03*
X588500D02*
D03*
D223*
X576846Y309984D02*
D03*
X620154D02*
D03*
Y334000D02*
D03*
D224*
X576846Y332031D02*
D03*
M02*
