G04*
G04 #@! TF.GenerationSoftware,Altium Limited,Altium Designer,22.0.2 (36)*
G04*
G04 Layer_Physical_Order=1*
G04 Layer_Color=255*
%FSLAX25Y25*%
%MOIN*%
G70*
G04*
G04 #@! TF.SameCoordinates,5FA76A90-C183-4406-A071-8446DD7401C7*
G04*
G04*
G04 #@! TF.FilePolarity,Positive*
G04*
G01*
G75*
D10*
X717800Y471673D02*
X717133D01*
X717000Y471540D01*
Y471273D01*
X717133Y471140D01*
X717800D01*
X717000Y470474D02*
X717800D01*
X717400Y470873D01*
Y470340D01*
D12*
X744709Y458874D02*
Y502181D01*
D18*
X578251Y260160D02*
G03*
X578247Y260250I-1000J0D01*
G01*
X578227Y260471D02*
G03*
X578228Y260454I997J73D01*
G01*
X572147Y295879D02*
G03*
X571989Y295673I707J-707D01*
G01*
X578014Y251474D02*
G03*
X574974Y254514I-4513J-1474D01*
G01*
X568759Y260264D02*
G03*
X572012Y255491I4741J-264D01*
G01*
X578991Y248512D02*
G03*
X587679Y252254I4509J1488D01*
G01*
X510583Y408917D02*
X514500Y405000D01*
X510583Y408917D02*
Y429358D01*
X514500Y399500D02*
Y405000D01*
Y399500D02*
X529843Y384157D01*
X533828Y407328D02*
X535157D01*
X537500Y409672D01*
X532000Y405500D02*
X533828Y407328D01*
X533373Y411201D02*
X533500Y411328D01*
X533461Y417961D02*
X533500Y417922D01*
X514710Y411201D02*
X533373D01*
X524500Y398000D02*
X532000Y405500D01*
X532985Y431358D02*
X537500Y426843D01*
X516039Y417961D02*
X533461D01*
X523500Y398000D02*
X524500D01*
X537500Y409672D02*
Y426843D01*
X514583Y411074D02*
X514710Y411201D01*
X532000Y405500D02*
X555000D01*
X529843Y384157D02*
X568884D01*
X590041Y363000D02*
X628000D01*
X568884Y384157D02*
X590041Y363000D01*
X516000Y418000D02*
X516039Y417961D01*
X484500Y399452D02*
X491890Y406842D01*
X491000Y400000D02*
X493890Y402890D01*
X481500Y400424D02*
X489890Y408813D01*
X491890Y406842D02*
Y426917D01*
X481500Y327676D02*
Y400424D01*
X489890Y408813D02*
Y426917D01*
X493890Y391000D02*
Y391586D01*
X484500Y361000D02*
Y399452D01*
X493890Y391586D02*
X495890Y393586D01*
X555000Y405500D02*
X595500Y365000D01*
X628828D01*
X533813Y433358D02*
X600172Y367000D01*
X629657D01*
X510835Y433358D02*
X533813D01*
X449500Y413500D02*
X457500Y421500D01*
X403453Y388787D02*
X411000Y396335D01*
X409577Y402462D02*
Y406500D01*
Y402462D02*
X411000Y401038D01*
X409000Y397000D02*
X411000D01*
Y396335D02*
Y397000D01*
Y401038D01*
X479728Y270091D02*
X481405Y268414D01*
X461905Y248087D02*
X481405Y267586D01*
X446039Y248087D02*
X461905D01*
X481405Y267586D02*
Y268414D01*
X404779Y406500D02*
X409577D01*
X414374D01*
X398874D02*
Y427150D01*
X415929Y411638D02*
X420280Y407287D01*
X415929Y411638D02*
Y432000D01*
X458429Y337138D02*
Y357500D01*
Y382929D02*
X471500Y396000D01*
Y405000D01*
X458429Y357500D02*
Y382929D01*
X487890Y421390D02*
Y426917D01*
X366047Y369000D02*
X369000Y371953D01*
X340000Y373500D02*
X344500Y369000D01*
X366047D01*
X617343Y315500D02*
X644500D01*
X589343Y343500D02*
X617343Y315500D01*
X578251Y255249D02*
Y260160D01*
X578228Y260454D02*
X578247Y260250D01*
X588500Y350500D02*
X595000Y357000D01*
X627000D01*
X695650Y314850D02*
X700426D01*
X649000Y361500D02*
X695650Y314850D01*
X700426D02*
X703150Y317574D01*
Y322570D01*
X705465Y324886D01*
X706386D02*
X708000Y326500D01*
X705465Y324886D02*
X706386D01*
X708000Y326500D02*
Y331000D01*
X446500Y489591D02*
Y490157D01*
X514843Y469000D02*
X520000D01*
X507327Y494673D02*
X516500Y485500D01*
X506135Y460292D02*
X514843Y469000D01*
X508135Y456635D02*
X513172Y461672D01*
X505000Y474765D02*
X505265Y475030D01*
Y478765D01*
X511000Y484500D01*
X523000Y305500D02*
X525500Y308000D01*
Y324000D01*
X508000Y341500D02*
X525500Y324000D01*
X509626Y306655D02*
Y307126D01*
X514500Y312000D01*
X509626Y306655D02*
X510500Y299000D01*
X481000Y305000D02*
Y306038D01*
X498410Y323447D01*
Y334238D01*
X505000Y331000D02*
X508500Y327500D01*
X502991Y309098D02*
Y310393D01*
X500410Y325447D02*
X503500Y322357D01*
X502991Y309098D02*
X503500Y308589D01*
X502991Y310393D02*
X503500Y310902D01*
Y322357D01*
X506000Y339000D02*
X514500Y330500D01*
Y312000D02*
Y330500D01*
X497890Y342890D02*
Y427500D01*
X500410Y325447D02*
Y333410D01*
X499890Y335718D02*
Y426917D01*
X491000Y336000D02*
X497890Y342890D01*
X500410Y333410D02*
X501890Y334890D01*
Y426917D01*
X498410Y334238D02*
X499890Y335718D01*
X484500Y361000D02*
X492000Y353500D01*
X483500Y324500D02*
Y325676D01*
X481500Y327676D02*
X483500Y325676D01*
X712500Y488673D02*
X712807Y488980D01*
X726882D01*
X727189Y489287D01*
X734791Y480012D02*
X738803Y476000D01*
X734639Y480012D02*
X734791D01*
X732626Y482024D02*
X734639Y480012D01*
X732626Y482024D02*
Y489289D01*
X711808Y494000D02*
X727914D01*
X738803Y476000D02*
X739000D01*
X727914Y494000D02*
X732626Y489289D01*
X727189Y475122D02*
X727476Y475409D01*
X728469D01*
X727189Y471768D02*
Y475122D01*
X728469Y483087D02*
Y485646D01*
Y480528D02*
Y483087D01*
Y477969D02*
Y480528D01*
Y475409D02*
Y477969D01*
X725947Y471768D02*
X727189D01*
X719173Y470173D02*
X724353D01*
X725947Y471768D01*
X711980Y463882D02*
X715736Y467638D01*
X711980Y463882D02*
X738791D01*
X711882D02*
X711980D01*
X711673Y463673D02*
X711882Y463882D01*
X738791D02*
X739000Y464090D01*
X375126Y359079D02*
X388874D01*
X389500Y358453D01*
X472547Y493213D02*
Y514500D01*
X486000Y454083D02*
Y459760D01*
X510583Y437358D02*
X550402D01*
X462833Y437662D02*
X483417D01*
X380000Y348500D02*
Y354078D01*
X374500Y343000D02*
X380000Y348500D01*
X375126Y359079D02*
Y366941D01*
X560000Y545000D02*
X560327Y545327D01*
X478453Y493213D02*
Y514500D01*
X510583Y439484D02*
X517561D01*
X488000Y454083D02*
Y460760D01*
X530953Y357000D02*
Y380000D01*
X493890Y402890D02*
Y426917D01*
X545000Y317240D02*
X545453Y316787D01*
X543953Y318287D02*
X545000Y317240D01*
Y343453D01*
Y316000D02*
Y317240D01*
X405130Y439323D02*
X407000Y437453D01*
X409453D01*
X369503Y256921D02*
X370497D01*
X329047Y241453D02*
Y275000D01*
X582000Y343500D02*
X589343D01*
X631000Y341500D02*
X636500Y347000D01*
X628000Y363000D02*
X681483Y309517D01*
X629657Y367000D02*
X701500Y295157D01*
X703000Y301000D02*
X706150Y297850D01*
X699000Y301000D02*
X703000D01*
X609358Y369000D02*
X631000D01*
X628828Y365000D02*
X683483Y310345D01*
X631000Y369000D02*
X699000Y301000D01*
X609370Y343000D02*
X610870Y341500D01*
X595500Y343000D02*
X609370D01*
X610870Y341500D02*
X631000D01*
X571835Y295409D02*
X571989Y295673D01*
X569500Y290914D02*
X571835Y295409D01*
X572147Y295879D02*
X575268Y299000D01*
X575925Y293925D02*
X578227Y260471D01*
X575925Y293925D02*
Y294000D01*
X575268Y299000D02*
X584842D01*
X383760Y269760D02*
X393500Y279500D01*
X636235Y412765D02*
X666200Y382800D01*
X611765Y412765D02*
X636235D01*
X611000Y412000D02*
X611765Y412765D01*
X724500Y343500D02*
X732000Y336000D01*
X708500Y343500D02*
X724500D01*
X708000Y356000D02*
X722000D01*
X732000Y346000D01*
X698275Y319725D02*
Y324150D01*
Y319725D02*
X698500Y319500D01*
X680500Y341925D02*
X698275Y324150D01*
X680500Y341925D02*
Y355000D01*
X637000Y398500D02*
X680500Y355000D01*
X597500Y398500D02*
X637000D01*
X686500Y347967D02*
X698000Y336467D01*
Y331000D02*
Y336467D01*
X638500Y405000D02*
X686500Y357000D01*
Y347967D02*
Y357000D01*
X607000Y405000D02*
X638500D01*
X666200Y381224D02*
X698500Y348924D01*
Y343500D02*
Y348924D01*
X666200Y381224D02*
Y382800D01*
X637000Y417000D02*
X698000Y356000D01*
X621500Y417000D02*
X637000D01*
X569500Y290086D02*
X569500Y290914D01*
X578251Y255249D02*
X578541Y254959D01*
X572012Y255491D02*
X574974Y254514D01*
X578014Y251474D02*
X578991Y248512D01*
X569500Y273586D02*
Y290086D01*
X568759Y260264D02*
X569500Y273586D01*
X583500Y260000D02*
X587679Y252254D01*
X578541Y254959D02*
X583500Y250000D01*
X543500D02*
X548248Y254748D01*
Y292752D01*
X542000Y299000D02*
X548248Y292752D01*
X532000Y271500D02*
Y298500D01*
Y271500D02*
X543500Y260000D01*
X505163Y490337D02*
X509061Y486439D01*
X375000Y280000D02*
X380000Y285000D01*
X374000Y280000D02*
X375000D01*
X369870Y265823D02*
Y281909D01*
X372607Y284646D01*
X374204D02*
X375083Y285524D01*
X372607Y284646D02*
X374204D01*
X375083Y285524D02*
Y287121D01*
X378296Y290335D01*
X373738Y294820D02*
X375918Y297000D01*
X377000D01*
X373320Y294820D02*
X373738D01*
X372500Y294000D02*
X373320Y294820D01*
X388500Y291272D02*
X391728Y294500D01*
X392500D01*
X388500Y291173D02*
Y291272D01*
X380000Y285000D02*
Y287653D01*
X372500Y290673D02*
Y294000D01*
X359500Y290173D02*
Y295000D01*
X366000Y294500D02*
X384500Y313000D01*
X366000Y290673D02*
Y294500D01*
X701500Y294000D02*
Y295157D01*
X681483Y279613D02*
Y309517D01*
X683483Y280441D02*
Y310345D01*
X543000Y435358D02*
X609358Y369000D01*
X706150Y291755D02*
Y297850D01*
X527181Y329350D02*
X538177Y318354D01*
X538664Y317671D02*
X538860D01*
X538177Y318158D02*
X538664Y317671D01*
X538177Y318158D02*
Y318354D01*
X526984Y329350D02*
X527181D01*
X526500Y329835D02*
X526984Y329350D01*
X526500Y329835D02*
Y330031D01*
X531453Y357000D02*
X531953Y356500D01*
X545000Y343453D01*
X539768Y476276D02*
Y476425D01*
X510583Y449358D02*
X512850D01*
X510878Y451622D02*
X564000Y504744D01*
X512850Y449358D02*
X539768Y476276D01*
X610563Y432453D02*
X614614Y436504D01*
X615500D02*
X615996Y437000D01*
X637500D01*
X556358Y445358D02*
X560000Y449000D01*
X557860Y455000D02*
X596500D01*
X617654Y425000D02*
X637500D01*
X615500Y427153D02*
X617654Y425000D01*
X614894Y426547D02*
X615500Y427153D01*
X614614Y436504D02*
X615500D01*
X591500Y432453D02*
X610563D01*
X591500Y426547D02*
X614894D01*
X550218Y447358D02*
X557860Y455000D01*
X562787Y426547D02*
X591500D01*
X560500Y428047D02*
X561287D01*
X559713Y433953D02*
X560500D01*
X559713Y428047D02*
X560500D01*
X561287D02*
X562787Y426547D01*
X560500Y433953D02*
X561287D01*
X562787Y432453D02*
X591500D01*
X561287Y433953D02*
X562787Y432453D01*
X585516Y441484D02*
X586000Y441000D01*
X561805Y441484D02*
X585516D01*
X560850Y443358D02*
X564492Y447000D01*
X561679Y441358D02*
X561805Y441484D01*
X564492Y447000D02*
X572500D01*
X550402Y437358D02*
X559713Y428047D01*
X554307Y439358D02*
X559713Y433953D01*
X568843Y505500D02*
X569839Y506496D01*
X539768Y476425D02*
X568843Y505500D01*
X723350Y395150D02*
Y396650D01*
Y395150D02*
X726000Y392500D01*
X711000Y409000D02*
X723350Y396650D01*
X707066Y421500D02*
X709566Y419000D01*
X711000D01*
X694000Y421500D02*
X707066D01*
X458429Y337138D02*
X462780Y332787D01*
Y332000D02*
Y332787D01*
X441374Y352650D02*
X446224Y357500D01*
X441374Y332000D02*
Y352650D01*
X452077Y332000D02*
X456874D01*
X447280D02*
X452077D01*
X451500Y322500D02*
X452077Y323077D01*
Y332000D01*
X547760Y303740D02*
X548500Y303000D01*
X547760Y303740D02*
Y307000D01*
X531953Y356500D02*
X542000D01*
X380000Y291098D02*
X385500Y296598D01*
X380000Y291000D02*
Y291098D01*
X385500Y296598D02*
Y299327D01*
Y302772D02*
X394500Y311772D01*
Y313000D01*
X385500Y302673D02*
Y302772D01*
X700906Y470995D02*
X708228Y463673D01*
X708327D01*
X684505Y470995D02*
X700906D01*
X677000Y478500D02*
X684505Y470995D01*
X688327Y478173D02*
X707654D01*
X674000Y492500D02*
X688327Y478173D01*
X368896Y256314D02*
X369503Y256921D01*
X366327Y253377D02*
X368896Y255947D01*
X370497Y256921D02*
X370765Y256652D01*
Y256025D02*
X373413Y253377D01*
X368896Y255947D02*
Y256314D01*
X370765Y256025D02*
Y256652D01*
X357500Y277500D02*
X359240Y275760D01*
Y269760D02*
Y275760D01*
X380500Y269760D02*
X383760D01*
X380500Y248500D02*
X381181Y247819D01*
X385421Y237870D02*
Y244957D01*
X398815Y252043D02*
X404858Y246000D01*
X406827D01*
X385421Y252043D02*
X398815D01*
X385421Y244957D02*
Y252043D01*
X382559Y247819D02*
X385421Y244957D01*
X381181Y247819D02*
X382559D01*
X366327Y248500D02*
Y253377D01*
X373413Y248500D02*
Y253377D01*
X354319Y237870D02*
Y244957D01*
X333370Y236343D02*
X342740D01*
X344268Y237870D01*
X330000Y239713D02*
Y240500D01*
Y239713D02*
X333370Y236343D01*
X344268Y237870D02*
X354319D01*
X336000Y276047D02*
Y286000D01*
X334953Y275000D02*
X336000Y276047D01*
X329047Y241453D02*
X330000Y240500D01*
X335032Y265500D02*
Y274921D01*
X334953Y275000D02*
X335032Y274921D01*
X335953Y240547D02*
Y254500D01*
X335906Y240500D02*
X335953Y240547D01*
Y254500D02*
Y255287D01*
X338968Y258303D02*
Y265500D01*
X335953Y255287D02*
X338968Y258303D01*
X402744Y272146D02*
X403327Y272728D01*
X402646Y272146D02*
X402744D01*
X401500Y271000D02*
X402646Y272146D01*
X403327Y272728D02*
Y272827D01*
X395000Y271000D02*
X401500D01*
X385421Y266216D02*
X422777D01*
X422090Y268358D02*
X423822Y270091D01*
X413564Y268358D02*
X422090D01*
X409095Y272827D02*
X413564Y268358D01*
X403327Y272827D02*
X409095D01*
X423822Y270091D02*
X479728D01*
X424650Y268091D02*
X468925D01*
X422777Y266216D02*
X424650Y268091D01*
X429453Y231500D02*
X446039Y248087D01*
X468925Y268091D02*
X471516Y265500D01*
X421500Y233547D02*
Y256000D01*
Y233547D02*
X423547Y231500D01*
X439098Y256500D02*
X440500D01*
X438007Y255410D02*
X439098Y256500D01*
X440023Y260075D02*
X441188Y258910D01*
X404028Y260075D02*
X440023D01*
X403083Y259130D02*
X404028Y260075D01*
X385421Y259130D02*
X403083D01*
X400272Y255587D02*
X404858Y251000D01*
X381484Y255587D02*
X400272D01*
X404858Y251000D02*
X406827D01*
X458413Y263087D02*
X458827Y263500D01*
X381484Y262673D02*
X381898Y263087D01*
X458413D01*
X471516Y265500D02*
X472827D01*
X366000Y287327D02*
X372500D01*
X366163Y269923D02*
X366327Y269760D01*
X366163Y269923D02*
Y287163D01*
X366000Y287327D02*
X366163Y287163D01*
X339165Y265500D02*
X339882Y266216D01*
X354319D01*
X338968Y265500D02*
X339165D01*
X376957Y229032D02*
Y252437D01*
Y229032D02*
X380000Y225989D01*
Y225500D02*
Y225989D01*
X369935Y225565D02*
Y252372D01*
Y225565D02*
X370000Y225500D01*
X369870Y252437D02*
X369935Y252372D01*
X362784Y228284D02*
Y252437D01*
X360000Y225500D02*
X362784Y228284D01*
X359500Y286728D02*
X362784Y283445D01*
X359500Y286728D02*
Y286827D01*
X362784Y265823D02*
Y283445D01*
X378296Y290335D02*
X379417D01*
X380000Y290917D01*
X373413Y269760D02*
X373713Y270059D01*
Y272941D02*
X388500Y287728D01*
X373713Y270059D02*
Y272941D01*
X380000Y290917D02*
Y291000D01*
X388500Y287728D02*
Y287827D01*
X376957Y270700D02*
X399430Y293173D01*
X376957Y265823D02*
Y270700D01*
X399430Y293173D02*
X406500D01*
X406663Y293337D02*
X417663D01*
X417827Y293500D01*
X406500Y293173D02*
X406663Y293337D01*
X415154Y276173D02*
X417827Y273500D01*
X403327Y276173D02*
X415154D01*
X406827Y256000D02*
X418153D01*
X499000Y494673D02*
X507327D01*
X485000Y469500D02*
X490000Y464500D01*
X488000Y483326D02*
X489000Y484326D01*
Y492000D01*
X485000Y469500D02*
Y486000D01*
X488000Y477500D02*
Y483326D01*
Y477500D02*
X492000Y473500D01*
Y455000D02*
Y473500D01*
X509061Y486439D02*
X511000Y484500D01*
X503837Y485663D02*
X505165Y486992D01*
X500135Y454083D02*
Y468973D01*
X503837Y485565D02*
Y485663D01*
X499953Y481681D02*
X503837Y485565D01*
X552000Y316000D02*
X553000Y315000D01*
X545453Y316000D02*
X552000D01*
X539547Y315213D02*
X547760Y307000D01*
X539547Y315213D02*
Y316000D01*
X539500Y316047D02*
X539547Y316000D01*
X526500Y333968D02*
Y356047D01*
X525547Y357000D02*
X526500Y356047D01*
X525047Y357500D02*
Y380000D01*
Y357500D02*
X525547Y357000D01*
X524047Y381000D02*
X525047Y380000D01*
X512500Y381000D02*
X524047D01*
X719500Y459000D02*
X725500Y453000D01*
Y446201D02*
Y453000D01*
X726000Y402500D02*
Y433299D01*
X725500Y433799D02*
X726000Y433299D01*
X673472Y514221D02*
X674358D01*
X687579Y501000D01*
X699222D01*
X712500Y514278D01*
Y528673D01*
X403453Y388000D02*
Y388787D01*
X396177Y389370D02*
Y402740D01*
X394500Y404418D02*
X396177Y402740D01*
Y389370D02*
X397547Y388000D01*
X394500Y404418D02*
Y405500D01*
X414173Y483327D02*
Y509000D01*
Y483327D02*
X416500Y481000D01*
X485890Y422390D02*
Y426917D01*
X446224Y357500D02*
X456429Y367705D01*
Y383757D01*
X410146Y508319D02*
Y508417D01*
X410728Y509000D02*
X410827D01*
X410146Y508417D02*
X410728Y509000D01*
X408000Y506173D02*
X410146Y508319D01*
X408000Y492000D02*
Y506173D01*
X414173Y509000D02*
X414272D01*
X418429Y513158D01*
X429457D01*
X432827Y509787D01*
Y509000D02*
Y509787D01*
X426921Y509000D02*
X428000Y507921D01*
Y492000D02*
Y507921D01*
X434197Y505858D02*
X443555Y496500D01*
X434197Y505858D02*
Y507630D01*
X432827Y509000D02*
X434197Y507630D01*
X443555Y496500D02*
X443653D01*
X449000Y492657D02*
Y494598D01*
X446500Y490157D02*
X449000Y492657D01*
X447098Y496500D02*
X449000Y494598D01*
X447000Y496500D02*
X447098D01*
X467495Y447505D02*
X483417D01*
X471995Y449505D02*
X483417D01*
X481090Y451327D02*
X483417D01*
X475260Y457157D02*
X481090Y451327D01*
X475260Y457157D02*
Y475740D01*
X471500Y479500D02*
X475260Y475740D01*
X459500Y462000D02*
X471995Y449505D01*
X459500Y462000D02*
Y474000D01*
X448000Y467000D02*
X467495Y447505D01*
X448000Y467000D02*
Y479000D01*
X466495Y445505D02*
X483417D01*
X442244Y495508D02*
X442827Y496091D01*
X441123Y495508D02*
X442244D01*
X440244Y494629D02*
X441123Y495508D01*
X442827Y496091D02*
Y496173D01*
X440244Y471756D02*
Y494629D01*
Y471756D02*
X466495Y445505D01*
X401177Y439323D02*
X405130D01*
X387500Y437453D02*
X392953D01*
X398000Y442500D01*
X401177Y439323D01*
X409453Y437453D02*
X410000Y438000D01*
X387500Y431547D02*
X388000Y432047D01*
X407000D01*
X407547Y431500D02*
X426000D01*
X407000Y432047D02*
X407547Y431500D01*
X458500Y443500D02*
X483417D01*
X456000Y446000D02*
X458500Y443500D01*
X440150Y446000D02*
X456000D01*
X427256Y433106D02*
X440150Y446000D01*
X427256Y432559D02*
Y433106D01*
X426197Y431500D02*
X427256Y432559D01*
X426000Y431500D02*
X426197D01*
X454016Y441484D02*
X458672D01*
X458687Y441500D01*
X453500Y442000D02*
X454016Y441484D01*
X458687Y441500D02*
X468959D01*
X459516Y439500D02*
X482500D01*
X457016Y437000D02*
X459516Y439500D01*
X448172Y437000D02*
X457016D01*
X468959Y441484D02*
X483417D01*
X442672Y431500D02*
X448172Y437000D01*
X429937Y431500D02*
X442672D01*
X430953Y416953D02*
X449000Y435000D01*
X460172D01*
X418500Y416953D02*
X430953D01*
X400555Y362500D02*
X401492D01*
X396646Y366409D02*
X400555Y362500D01*
X383000Y366409D02*
X396646D01*
X383053Y369053D02*
X399774D01*
X383000Y369106D02*
X383053Y369053D01*
X399774D02*
X399827Y369000D01*
X402673Y387221D02*
X403453Y388000D01*
X402673Y377000D02*
Y387221D01*
X383098Y377098D02*
X399228D01*
X383000Y377197D02*
X383098Y377098D01*
X399228D02*
X399327Y377000D01*
X375913Y380701D02*
X383213Y388000D01*
X397547D01*
X375126Y380701D02*
X375913D01*
X375126Y378024D02*
Y380701D01*
Y374087D02*
Y378024D01*
Y371528D02*
Y374087D01*
X373913Y371953D02*
X374339Y371528D01*
X369000Y371953D02*
X373913D01*
X374339Y371528D02*
X375126D01*
X394500Y419500D02*
X395157D01*
X397657Y417000D02*
X405000D01*
X395157Y419500D02*
X397657Y417000D01*
X398724Y409724D02*
X403630D01*
X394500Y405500D02*
X398724Y409724D01*
X403630D02*
X405000Y411095D01*
X405047Y411047D01*
X418500D01*
X405047Y416953D02*
X418500D01*
X405000Y417000D02*
X405047Y416953D01*
X428394Y405608D02*
X455787Y433000D01*
X461000D01*
X428394Y394221D02*
Y405608D01*
X430394Y404779D02*
X456615Y431000D01*
X430394Y391836D02*
Y404779D01*
X456615Y431000D02*
X462500D01*
X460172Y435000D02*
X462833Y437662D01*
X460847Y427500D02*
X460945D01*
X463500Y429000D02*
X466161Y431662D01*
X461000Y433000D02*
X463661Y435662D01*
X462500Y431000D02*
X465162Y433662D01*
X462445Y429000D02*
X463500D01*
X460945Y427500D02*
X462445Y429000D01*
X463661Y435662D02*
X483417D01*
X404173Y362327D02*
Y365615D01*
X430394Y391836D01*
X465162Y433662D02*
X483417D01*
X495890Y393586D02*
Y426917D01*
X461500Y415500D02*
X461827Y415827D01*
Y422500D01*
X457500Y421500D02*
Y427500D01*
X467637Y429551D02*
X483417D01*
X466000Y422500D02*
Y426154D01*
X466923Y427077D01*
X466978D01*
X467000Y427055D01*
X466161Y431662D02*
X483417D01*
X467000Y428914D02*
X467637Y429551D01*
X467000Y427055D02*
Y428914D01*
X403272Y369000D02*
X403854Y369583D01*
Y369681D02*
X428394Y394221D01*
X403173Y369000D02*
X403272D01*
X403854Y369583D02*
Y369681D01*
X469000Y396328D02*
Y405500D01*
X456429Y383757D02*
X469000Y396328D01*
Y405500D02*
X485890Y422390D01*
X471500Y405000D02*
X487890Y421390D01*
X507949Y425000D02*
X508000Y424949D01*
X503890Y338282D02*
X505000Y337172D01*
X508000Y341500D02*
Y424949D01*
X503890Y338282D02*
Y426917D01*
X506000Y339000D02*
Y426917D01*
X505000Y331000D02*
Y337172D01*
X508953Y572953D02*
X509000Y573000D01*
X502500Y572953D02*
X508953D01*
X486000Y502000D02*
X493953Y494047D01*
X495953Y496011D02*
X497000Y497058D01*
X495953Y454083D02*
Y496011D01*
X493953Y454083D02*
Y494047D01*
X497000Y497058D02*
Y533500D01*
X486000Y502000D02*
Y546000D01*
X510583Y431358D02*
X532985D01*
X510583Y433610D02*
X510835Y433358D01*
X510583Y435358D02*
X543000D01*
X683483Y280441D02*
X701500Y262424D01*
X695500Y253924D02*
Y265596D01*
X681483Y279613D02*
X695500Y265596D01*
X510583Y443358D02*
X560850D01*
X510583Y445358D02*
X556358D01*
X518516Y441358D02*
X561679D01*
X510583Y441484D02*
X518516D01*
X517687Y439358D02*
X554307D01*
X510583Y447358D02*
X550218D01*
X695500Y253924D02*
X699574Y249850D01*
X703426D01*
X706150Y252574D01*
Y260603D01*
X702903Y263850D02*
X706150Y260603D01*
X702903Y263850D02*
Y267598D01*
X702000Y268500D02*
X702903Y267598D01*
X701500Y254500D02*
Y262424D01*
Y281500D02*
Y287105D01*
X706150Y291755D01*
X504135Y454083D02*
Y461120D01*
X502135Y454083D02*
Y462500D01*
X520635Y481000D01*
X508135Y454000D02*
Y456635D01*
X505858Y454083D02*
X506135Y454359D01*
X504135Y461120D02*
X518015Y475000D01*
X506135Y454359D02*
Y460292D01*
X520635Y481000D02*
X532000D01*
X518015Y475000D02*
X526500D01*
X490000Y455000D02*
Y464500D01*
X473000Y559000D02*
X486000Y546000D01*
X477260Y468500D02*
X486000Y459760D01*
X479260Y469500D02*
X488000Y460760D01*
X479260Y469500D02*
Y489328D01*
X478953Y489636D02*
X479260Y489328D01*
X478953Y489636D02*
Y494000D01*
X477260Y468500D02*
Y488500D01*
X472547Y493213D02*
X477260Y488500D01*
X719173Y470173D02*
X719264Y470083D01*
X717363Y471551D02*
X717719Y471908D01*
X708244Y490436D02*
X711808Y494000D01*
X708244Y485909D02*
Y490436D01*
Y485909D02*
X715709Y478445D01*
Y473918D02*
Y478445D01*
Y473918D02*
X717719Y471908D01*
X715827Y471551D02*
X717363D01*
X711098Y478173D02*
X713709Y475563D01*
Y473669D02*
X715827Y471551D01*
X711000Y478173D02*
X711098D01*
X713709Y473669D02*
Y475563D01*
X715736Y468705D02*
X715827Y468795D01*
X715736Y467638D02*
Y468705D01*
X712500Y488673D02*
X713113Y488060D01*
X658500Y524342D02*
X668622Y514221D01*
X673472D01*
X682528Y515008D02*
X687650D01*
X697500Y505158D01*
X673472Y521779D02*
X682528D01*
X686476Y524843D02*
X697500D01*
X683413Y521779D02*
X686476Y524843D01*
X682528Y521779D02*
X683413D01*
X582437Y509721D02*
X582657Y509500D01*
X582437Y509721D02*
Y523673D01*
X560327Y545327D02*
X569839D01*
X582437D01*
X583618Y523673D02*
X599500Y539555D01*
X582437Y523673D02*
X583618D01*
X599500Y539555D02*
Y540000D01*
X732000Y275000D02*
Y276000D01*
X711500Y254500D02*
X732000Y275000D01*
X714650Y271150D02*
X717150D01*
X732000Y286000D01*
X712000Y268500D02*
X714650Y271150D01*
X711500Y281500D02*
X726000Y296000D01*
X732000D01*
X720000Y294000D02*
X732000Y306000D01*
X711500Y294000D02*
X720000D01*
X517561Y439484D02*
X517687Y439358D01*
X569839Y506496D02*
Y523673D01*
X564000Y504744D02*
Y526255D01*
X581256Y523673D02*
X582437D01*
X577197Y527732D02*
X581256Y523673D01*
X565477Y527732D02*
X577197D01*
X564000Y526255D02*
X565477Y527732D01*
X502500Y567047D02*
X503000Y566547D01*
Y558173D02*
Y566547D01*
X502000Y553728D02*
X503000Y554728D01*
X502000Y533500D02*
Y553728D01*
X503000Y554728D02*
Y554827D01*
X469000Y531500D02*
X473047Y527453D01*
Y514500D02*
Y527453D01*
X478953Y514500D02*
Y529370D01*
X480500Y530918D01*
Y532000D01*
X498067Y454083D02*
Y468213D01*
X497953Y482510D02*
X499000Y483557D01*
X497953Y468327D02*
X498067Y468213D01*
X497953Y468327D02*
Y482510D01*
X499953Y469156D02*
X500135Y468973D01*
X499953Y469156D02*
Y481681D01*
X499000Y483557D02*
Y491327D01*
X164051Y725406D02*
X165051Y724405D01*
X742937Y502969D02*
X739001D01*
Y504936D01*
X739657Y505592D01*
X740969D01*
X741625Y504936D01*
Y502969D01*
X739657Y509528D02*
X739001Y508872D01*
Y507560D01*
X739657Y506904D01*
X742281D01*
X742937Y507560D01*
Y508872D01*
X742281Y509528D01*
X739001Y510840D02*
X742937D01*
Y512808D01*
X742281Y513464D01*
X741625D01*
X740969Y512808D01*
Y510840D01*
Y512808D01*
X740313Y513464D01*
X739657D01*
X739001Y512808D01*
Y510840D01*
Y521335D02*
Y518712D01*
X742937D01*
Y521335D01*
X740969Y518712D02*
Y520023D01*
X739001Y522647D02*
X742937D01*
Y524615D01*
X742281Y525271D01*
X739657D01*
X739001Y524615D01*
Y522647D01*
X739657Y529207D02*
X739001Y528551D01*
Y527239D01*
X739657Y526583D01*
X742281D01*
X742937Y527239D01*
Y528551D01*
X742281Y529207D01*
X740969D01*
Y527895D01*
X739001Y533143D02*
Y530519D01*
X742937D01*
Y533143D01*
X740969Y530519D02*
Y531831D01*
D30*
X727189Y471768D02*
D03*
Y489287D02*
D03*
D31*
X514500Y405000D02*
D03*
X533500Y417922D02*
D03*
X523500Y398000D02*
D03*
X533500Y411328D02*
D03*
X514583Y411074D02*
D03*
X516000Y418000D02*
D03*
X493890Y391000D02*
D03*
X491000Y400000D02*
D03*
X411000Y397000D02*
D03*
D03*
X644500Y315500D02*
D03*
X587000Y349000D02*
D03*
X627000Y357000D02*
D03*
X649000Y361500D02*
D03*
X446500Y489591D02*
D03*
X520000Y469000D02*
D03*
X516500Y485500D02*
D03*
X513172Y461672D02*
D03*
X505000Y474765D02*
D03*
X346000Y237500D02*
D03*
X636500Y347000D02*
D03*
X582000Y343500D02*
D03*
X595500Y343000D02*
D03*
X575925Y294000D02*
D03*
X588000Y285000D02*
D03*
X394500Y280000D02*
D03*
X611000Y412000D02*
D03*
X597500Y398500D02*
D03*
X607000Y405000D02*
D03*
X621500Y417000D02*
D03*
X584842Y299000D02*
D03*
X568500Y343500D02*
D03*
X542000Y299000D02*
D03*
X532000Y298500D02*
D03*
X374000Y280000D02*
D03*
X393500Y295000D02*
D03*
X377000Y297000D02*
D03*
X359500Y296500D02*
D03*
X622000Y345500D02*
D03*
X637500Y425000D02*
D03*
Y437000D02*
D03*
X451500Y322500D02*
D03*
X548500Y303000D02*
D03*
X542000Y356500D02*
D03*
X677000Y478500D02*
D03*
X674000Y492500D02*
D03*
X370000Y258500D02*
D03*
X357000Y278500D02*
D03*
X336000Y286000D02*
D03*
X395000Y271000D02*
D03*
X485000Y486000D02*
D03*
X489000Y492000D02*
D03*
X553000Y315000D02*
D03*
X512500Y381000D02*
D03*
X719500Y459000D02*
D03*
X416500Y481000D02*
D03*
X398000Y442500D02*
D03*
X389500Y358453D02*
D03*
X394500Y419500D02*
D03*
Y405500D02*
D03*
X453500Y442000D02*
D03*
X450000Y414500D02*
D03*
X461500Y415500D02*
D03*
X510000Y573000D02*
D03*
X532000Y481000D02*
D03*
X526500Y475000D02*
D03*
X559500Y546000D02*
D03*
X469000Y531500D02*
D03*
X480500Y532000D02*
D03*
D32*
X458429Y357500D02*
D03*
X446224D02*
D03*
D41*
X350000Y343500D02*
D03*
X340000D02*
D03*
X350000Y353500D02*
D03*
X340000D02*
D03*
X350000Y363500D02*
D03*
X340000D02*
D03*
X350000Y373500D02*
D03*
X340000D02*
D03*
X350000Y383500D02*
D03*
X340000D02*
D03*
X350000Y395000D02*
D03*
X340000D02*
D03*
X350000Y405000D02*
D03*
X340000D02*
D03*
X350000Y415000D02*
D03*
X340000D02*
D03*
X350000Y425000D02*
D03*
X340000D02*
D03*
X350000Y435000D02*
D03*
X340000D02*
D03*
X350000Y447000D02*
D03*
X340000D02*
D03*
X350000Y457000D02*
D03*
X340000D02*
D03*
X350000Y467000D02*
D03*
X340000D02*
D03*
X350000Y477000D02*
D03*
X340000D02*
D03*
X350000Y487000D02*
D03*
X340000D02*
D03*
X350000Y499000D02*
D03*
X340000D02*
D03*
X350000Y509000D02*
D03*
X340000D02*
D03*
X350000Y519000D02*
D03*
X340000D02*
D03*
X350000Y529000D02*
D03*
X340000D02*
D03*
X350000Y539000D02*
D03*
X340000D02*
D03*
D43*
X586000Y441000D02*
D03*
X572500Y447000D02*
D03*
X596500Y455000D02*
D03*
X560000Y449000D02*
D03*
X448000Y479000D02*
D03*
X502000Y308000D02*
D03*
X508500Y327500D02*
D03*
X481000Y305000D02*
D03*
X523000Y305500D02*
D03*
X510500Y299000D02*
D03*
X491000Y336000D02*
D03*
X473000Y559000D02*
D03*
X492000Y353500D02*
D03*
X483500Y324500D02*
D03*
X471500Y479500D02*
D03*
X459500Y474000D02*
D03*
X440500Y256500D02*
D03*
X458827Y263500D02*
D03*
X472827Y265500D02*
D03*
D59*
X739000Y496965D02*
D03*
Y464090D02*
D03*
D61*
X497000Y533500D02*
D03*
X492000D02*
D03*
D62*
X406827Y251000D02*
D03*
Y246000D02*
D03*
D64*
X502000Y533500D02*
D03*
D79*
X526500Y333968D02*
D03*
Y330031D02*
D03*
D84*
X359240Y248500D02*
D03*
X366327D02*
D03*
X373413D02*
D03*
X380500D02*
D03*
X362784Y252437D02*
D03*
X369870D02*
D03*
X376957D02*
D03*
X358256Y255587D02*
D03*
X381484D02*
D03*
X362784Y265823D02*
D03*
X369870D02*
D03*
X376957D02*
D03*
X359240Y269760D02*
D03*
X366327D02*
D03*
X373413D02*
D03*
X380500D02*
D03*
X358256Y262673D02*
D03*
X381484D02*
D03*
X354319Y266216D02*
D03*
Y259130D02*
D03*
Y252043D02*
D03*
Y244957D02*
D03*
Y237870D02*
D03*
X385421Y266216D02*
D03*
Y259130D02*
D03*
Y252043D02*
D03*
Y244957D02*
D03*
Y237870D02*
D03*
D139*
X715827Y468795D02*
D03*
X719173Y470173D02*
D03*
X715827Y471551D02*
D03*
D140*
X483417Y429673D02*
D03*
Y431642D02*
D03*
Y433610D02*
D03*
Y435579D02*
D03*
Y437547D02*
D03*
Y439516D02*
D03*
Y441484D02*
D03*
Y443453D02*
D03*
Y445421D02*
D03*
Y447390D02*
D03*
Y449358D02*
D03*
Y451327D02*
D03*
X510583D02*
D03*
Y449358D02*
D03*
Y447390D02*
D03*
Y445421D02*
D03*
Y443453D02*
D03*
Y441484D02*
D03*
Y439516D02*
D03*
Y437547D02*
D03*
Y435579D02*
D03*
Y433610D02*
D03*
Y431642D02*
D03*
Y429673D02*
D03*
D142*
X486173Y454083D02*
D03*
X488142D02*
D03*
X490110D02*
D03*
X492079D02*
D03*
X494047D02*
D03*
X496016D02*
D03*
X497984D02*
D03*
X499953D02*
D03*
X501921D02*
D03*
X503890D02*
D03*
X505858D02*
D03*
X507827D02*
D03*
Y426917D02*
D03*
X505858D02*
D03*
X503890D02*
D03*
X501921D02*
D03*
X499953D02*
D03*
X497984D02*
D03*
X496016D02*
D03*
X494047D02*
D03*
X492079D02*
D03*
X490110D02*
D03*
X488142D02*
D03*
X486173D02*
D03*
D148*
X404779Y406500D02*
D03*
X398874D02*
D03*
X414374D02*
D03*
X420280D02*
D03*
X441374Y332000D02*
D03*
X447280D02*
D03*
X329047Y275000D02*
D03*
X334953D02*
D03*
X330000Y240500D02*
D03*
X335906D02*
D03*
X330047Y254500D02*
D03*
X335953D02*
D03*
X397547Y388000D02*
D03*
X403453D02*
D03*
X530953Y380000D02*
D03*
X525047D02*
D03*
X531453Y357000D02*
D03*
X525547D02*
D03*
X539547Y316000D02*
D03*
X545453D02*
D03*
X478953Y514500D02*
D03*
X473047D02*
D03*
X478953Y494000D02*
D03*
X473047D02*
D03*
X462780Y332000D02*
D03*
X456874D02*
D03*
X426921Y509000D02*
D03*
X432827D02*
D03*
D149*
X615500Y436504D02*
D03*
D150*
Y427153D02*
D03*
D151*
X591500Y432453D02*
D03*
Y426547D02*
D03*
X560500Y433953D02*
D03*
Y428047D02*
D03*
X380000Y352547D02*
D03*
Y358453D02*
D03*
X418500Y411047D02*
D03*
Y416953D02*
D03*
X405000Y411095D02*
D03*
Y417000D02*
D03*
X387500Y437453D02*
D03*
Y431547D02*
D03*
X407000Y437953D02*
D03*
Y432047D02*
D03*
D152*
X335032Y265500D02*
D03*
X338968D02*
D03*
X426000Y431500D02*
D03*
X429937D02*
D03*
D153*
X497000Y440500D02*
D03*
D154*
X403327Y272827D02*
D03*
Y276173D02*
D03*
X406500Y293673D02*
D03*
Y290327D02*
D03*
X504500Y489673D02*
D03*
Y486327D02*
D03*
X499000Y494673D02*
D03*
Y491327D02*
D03*
X503000Y558173D02*
D03*
Y554827D02*
D03*
X359500Y290173D02*
D03*
Y286827D02*
D03*
X366000Y290673D02*
D03*
Y287327D02*
D03*
X372500Y290673D02*
D03*
Y287327D02*
D03*
X380000Y287653D02*
D03*
Y291000D02*
D03*
X388500Y291173D02*
D03*
Y287827D02*
D03*
X385500Y302673D02*
D03*
Y299327D02*
D03*
D155*
X569839Y523673D02*
D03*
X582437D02*
D03*
X569839Y545327D02*
D03*
X582437D02*
D03*
D156*
X402673Y377000D02*
D03*
X399327D02*
D03*
X403173Y369000D02*
D03*
X399827D02*
D03*
X400827Y362327D02*
D03*
X404173D02*
D03*
X465173Y422500D02*
D03*
X461827D02*
D03*
X707654Y478173D02*
D03*
X711000D02*
D03*
X460847Y427500D02*
D03*
X457500D02*
D03*
X708327Y463673D02*
D03*
X711673D02*
D03*
X414173Y509000D02*
D03*
X410827D02*
D03*
X443653Y496500D02*
D03*
X447000D02*
D03*
X418153Y256000D02*
D03*
X421500D02*
D03*
D157*
X383000Y366409D02*
D03*
Y369106D02*
D03*
Y371803D02*
D03*
Y374500D02*
D03*
Y377197D02*
D03*
X375126Y380701D02*
D03*
Y378024D02*
D03*
Y374087D02*
D03*
Y371528D02*
D03*
D158*
Y366941D02*
D03*
D159*
X728469Y483087D02*
D03*
Y480528D02*
D03*
Y485646D02*
D03*
Y477969D02*
D03*
Y475409D02*
D03*
D160*
X739000Y476000D02*
D03*
Y485055D02*
D03*
D161*
X502500Y572953D02*
D03*
Y567047D02*
D03*
D162*
X429453Y231500D02*
D03*
X423547D02*
D03*
D163*
X725500Y433799D02*
D03*
X725500Y446201D02*
D03*
D164*
X739000Y493864D02*
D03*
X739000Y467191D02*
D03*
D168*
X673472Y514221D02*
D03*
Y521779D02*
D03*
X682528D02*
D03*
D169*
Y515008D02*
D03*
D195*
X404500Y343000D02*
D03*
X394500D02*
D03*
X384500D02*
D03*
X374500D02*
D03*
X404500Y313000D02*
D03*
X394500D02*
D03*
X384500D02*
D03*
D196*
X374500D02*
D03*
D197*
X360000Y225500D02*
D03*
X711500Y254500D02*
D03*
X708000Y356000D02*
D03*
X708500Y319500D02*
D03*
X708000Y331000D02*
D03*
X712000Y268500D02*
D03*
X708500Y343500D02*
D03*
X711500Y294000D02*
D03*
Y281500D02*
D03*
D198*
X370000Y225500D02*
D03*
X380000D02*
D03*
X711000Y449000D02*
D03*
Y439000D02*
D03*
Y419000D02*
D03*
Y399000D02*
D03*
Y389000D02*
D03*
Y409000D02*
D03*
Y429000D02*
D03*
X701500Y254500D02*
D03*
X698000Y356000D02*
D03*
X698500Y319500D02*
D03*
X694000Y411500D02*
D03*
X698000Y331000D02*
D03*
X702000Y268500D02*
D03*
X698500Y343500D02*
D03*
X701500Y294000D02*
D03*
Y281500D02*
D03*
X599500Y540000D02*
D03*
X732000Y276000D02*
D03*
Y286000D02*
D03*
Y306000D02*
D03*
Y326000D02*
D03*
Y336000D02*
D03*
Y316000D02*
D03*
Y296000D02*
D03*
X726000Y402500D02*
D03*
D199*
X711000Y379000D02*
D03*
X694000Y421500D02*
D03*
X599500Y530000D02*
D03*
X732000Y346000D02*
D03*
X726000Y392500D02*
D03*
D200*
X406827Y256000D02*
D03*
D201*
X417827Y273500D02*
D03*
D202*
Y293500D02*
D03*
X428000Y492000D02*
D03*
D203*
X408000D02*
D03*
D204*
X712500Y528673D02*
D03*
Y488673D02*
D03*
D205*
X602343Y509500D02*
D03*
X549157Y505500D02*
D03*
X697500Y505158D02*
D03*
X658500Y504658D02*
D03*
D206*
X582657Y509500D02*
D03*
X568843Y505500D02*
D03*
D207*
X697500Y524843D02*
D03*
X658500Y524342D02*
D03*
D208*
X613000Y250500D02*
D03*
X623000D02*
D03*
X633000D02*
D03*
X653000D02*
D03*
X643000D02*
D03*
D209*
X663000D02*
D03*
D210*
X553500Y260000D02*
D03*
Y250000D02*
D03*
X543500Y260000D02*
D03*
X563500Y250000D02*
D03*
Y260000D02*
D03*
X573500Y250000D02*
D03*
X583500D02*
D03*
X573500Y260000D02*
D03*
X583500D02*
D03*
D211*
X543500Y250000D02*
D03*
M02*
