G04*
G04 #@! TF.GenerationSoftware,Altium Limited,Altium Designer,22.0.2 (36)*
G04*
G04 Layer_Physical_Order=4*
G04 Layer_Color=16711680*
%FSLAX25Y25*%
%MOIN*%
G70*
G04*
G04 #@! TF.SameCoordinates,5FA76A90-C183-4406-A071-8446DD7401C7*
G04*
G04*
G04 #@! TF.FilePolarity,Positive*
G04*
G01*
G75*
D10*
X717800Y471673D02*
X717133D01*
X717000Y471540D01*
Y471273D01*
X717133Y471140D01*
X717800D01*
X717000Y470474D02*
X717800D01*
X717400Y470873D01*
Y470340D01*
D12*
X744709Y458874D02*
Y502181D01*
D18*
X732689Y310598D02*
G03*
X727402Y305311I-689J-4598D01*
G01*
X727402Y305240D02*
G03*
X727402Y305241I-1000J0D01*
G01*
X494657Y398000D02*
X523500D01*
X483657Y387000D02*
X494657Y398000D01*
X355172Y387000D02*
X483657D01*
X354172Y388000D02*
X355172Y387000D01*
X350636Y388000D02*
X354172D01*
X345500Y393136D02*
X350636Y388000D01*
X345500Y393136D02*
Y400500D01*
X350000Y405000D01*
Y395000D02*
X356000Y389000D01*
X427385D01*
X443385Y405000D01*
X514500D01*
X589485D02*
X606000D01*
X526500Y470814D02*
Y475000D01*
X593157Y398500D02*
X597500D01*
X532000Y468142D02*
X581642Y418500D01*
X620500D01*
X525485Y469000D02*
X589485Y405000D01*
X537485Y413000D02*
X563500D01*
X526500Y470814D02*
X585314Y412000D01*
X514828Y457672D02*
X517657Y460500D01*
X542076Y299752D02*
X542248D01*
X529500Y312328D02*
X542076Y299752D01*
X529500Y312328D02*
Y458743D01*
X518485Y458500D02*
X526914D01*
X527500Y311500D02*
X531500Y307500D01*
X527743Y460500D02*
X529500Y458743D01*
X533828Y411000D02*
X562157D01*
X585314Y412000D02*
X611000D01*
X532000Y468142D02*
Y481000D01*
X520000Y469000D02*
X525485D01*
X533500Y416985D02*
X537485Y413000D01*
X533500Y416985D02*
Y417922D01*
X529157Y462500D02*
X593157Y398500D01*
X526914Y458500D02*
X527500Y457914D01*
X517657Y460500D02*
X527743D01*
X533500Y411328D02*
X533828Y411000D01*
X527500Y311500D02*
Y457914D01*
X516828Y462500D02*
X529157D01*
X458620Y411500D02*
X514157D01*
X514583Y411074D01*
X515657Y455672D02*
X518485Y458500D01*
X515343Y418000D02*
X516000D01*
X512843Y415500D02*
X515343Y418000D01*
X509000Y460186D02*
X511515Y457672D01*
X505205Y461153D02*
X510686Y455672D01*
X515657D01*
X511515Y457672D02*
X514828D01*
X505205Y461153D02*
Y474560D01*
X502500Y391000D02*
X512500Y381000D01*
X493890Y391000D02*
X502500D01*
X505000Y474765D02*
X505205Y474560D01*
X509000Y460186D02*
Y478000D01*
X562157Y411000D02*
X637507Y335650D01*
X563500Y413000D02*
X637650Y338850D01*
X344500Y504500D02*
X350864D01*
X392843Y401500D02*
X394000D01*
X371877Y422466D02*
X392843Y401500D01*
X371877Y422466D02*
Y471487D01*
X350910Y492454D02*
X371877Y471487D01*
X346546Y492454D02*
X350910D01*
X340000Y499000D02*
X346546Y492454D01*
X382142Y486858D02*
X412263D01*
X378313Y484858D02*
X413092D01*
X351364Y514000D02*
X354500Y510864D01*
Y508672D02*
Y510864D01*
X348636Y514000D02*
X351364D01*
X354500Y508672D02*
X378313Y484858D01*
X350000Y519000D02*
X382142Y486858D01*
X350864Y504500D02*
X380103Y475260D01*
X345500Y517136D02*
X348636Y514000D01*
X380103Y428240D02*
Y475260D01*
X345500Y517136D02*
Y524500D01*
X394000Y401500D02*
X404500Y391000D01*
X426500D01*
X450000Y414500D01*
X418362Y393000D02*
X443862Y418500D01*
X398500Y403843D02*
X409343Y393000D01*
X418362D01*
X398500Y403843D02*
Y409843D01*
X340000Y509000D02*
X344500Y504500D01*
X454351Y413500D02*
X456620D01*
X454000Y413851D02*
X454351Y413500D01*
X380103Y428240D02*
X398500Y409843D01*
X455880Y415500D02*
X461500D01*
X443862Y418500D02*
X452880D01*
X456620Y413500D02*
X458620Y411500D01*
X452880Y418500D02*
X455880Y415500D01*
X450000Y414500D02*
X450649Y413851D01*
X454000D01*
X411000Y397000D02*
X416500Y402500D01*
Y481000D01*
X644500Y315500D02*
X645150Y314850D01*
X700426D01*
X587000Y349000D02*
X587087Y348913D01*
X592413D02*
X592500Y348827D01*
X587087Y348913D02*
X592413D01*
X592500Y352173D02*
Y352272D01*
X579500Y352673D02*
Y352772D01*
X580083Y353354D02*
X580523D01*
X591173Y353500D02*
X591819Y352854D01*
X591917D01*
X576484Y352071D02*
X579500D01*
Y352772D02*
X580083Y353354D01*
X580523D02*
X580668Y353500D01*
X591173D01*
X591917Y352854D02*
X592500Y352272D01*
Y352173D02*
X592750Y351923D01*
X580083Y347917D02*
X584000Y344000D01*
X579500Y348864D02*
X579864D01*
X579136D02*
X579500D01*
Y349327D02*
Y349500D01*
Y348864D02*
Y349327D01*
Y348500D02*
Y348864D01*
X582500Y344000D02*
X584000D01*
X580083Y347917D02*
Y348646D01*
X579136Y348864D02*
X579500Y348500D01*
X579864Y348864D02*
X580083Y348646D01*
X576484Y342452D02*
Y351587D01*
X567500Y333468D02*
X576484Y342452D01*
X576000Y352071D02*
X576484D01*
X584000Y344000D02*
X588500D01*
X627500Y358500D02*
X630500Y361500D01*
X649000D01*
X498821Y480000D02*
X508321Y489500D01*
X520000Y469000D02*
Y469657D01*
X522500Y472157D01*
Y488328D01*
X519328Y491500D02*
X522500Y488328D01*
X503574Y491500D02*
X519328D01*
X494074Y482000D02*
X503574Y491500D01*
X478320Y482000D02*
X494074D01*
X474230Y486091D02*
X478320Y482000D01*
X449277Y486091D02*
X474230D01*
X448777Y485591D02*
X449277Y486091D01*
X425729Y487000D02*
X427138Y485591D01*
X412405Y487000D02*
X425729D01*
X490500Y486000D02*
X498000Y493500D01*
X412263Y486858D02*
X412405Y487000D01*
X660500Y493500D02*
X676250Y477750D01*
X477492Y480000D02*
X498821D01*
X473401Y484091D02*
X477492Y480000D01*
X450105Y484091D02*
X473401D01*
X449606Y483591D02*
X450105Y484091D01*
X426309Y483591D02*
X449606D01*
X424900Y485000D02*
X426309Y483591D01*
X345500Y524500D02*
X350000Y529000D01*
X671000Y495500D02*
X674000Y492500D01*
X492500Y495500D02*
X671000D01*
X489000Y492000D02*
X492500Y495500D01*
X413092Y484858D02*
X413233Y485000D01*
X424900D01*
X427138Y485591D02*
X448777D01*
X498000Y493500D02*
X660500D01*
X485000Y486000D02*
X490500D01*
X513937Y462437D02*
X516000Y464500D01*
X513172Y461672D02*
X513937Y462437D01*
X518500Y489500D02*
X520500Y487500D01*
Y478620D02*
Y487500D01*
X516000Y464500D02*
Y474120D01*
X520500Y478620D01*
X508321Y489500D02*
X518500D01*
X509000Y478000D02*
X516500Y485500D01*
X513937Y462437D02*
X516765D01*
X516828Y462500D01*
X351864Y533500D02*
X361021Y524342D01*
X658500D01*
X345500Y533500D02*
X351864D01*
X340000Y529000D02*
Y539000D01*
X345500Y533500D01*
X702426Y316850D02*
X705850D01*
X700426Y314850D02*
X702426Y316850D01*
X705850D02*
X708500Y319500D01*
X703150Y344201D02*
X703850Y343500D01*
X637582Y347000D02*
X638732Y348150D01*
X703850Y343500D02*
X708500D01*
X703150Y344201D02*
Y345426D01*
X700426Y348150D02*
X703150Y345426D01*
X638732Y348150D02*
X700426D01*
X636500Y347000D02*
X637582D01*
X711978Y338850D02*
X724828Y326000D01*
X637650Y338850D02*
X711978D01*
X588500Y334000D02*
Y344000D01*
Y332586D02*
Y334000D01*
X582000Y343500D02*
X582500Y344000D01*
X590500Y340740D02*
Y346728D01*
X592500Y348728D01*
X590500Y340740D02*
X593500Y337740D01*
X598500Y346000D02*
Y348327D01*
X598500Y334000D02*
Y337740D01*
X595500Y343000D02*
X596265Y342235D01*
X595500Y343000D02*
X598500Y346000D01*
X596265Y339975D02*
X598500Y337740D01*
X596265Y339975D02*
Y342235D01*
X598500Y348327D02*
X598500Y348327D01*
X592500Y348728D02*
Y348827D01*
X593500Y330260D02*
Y337740D01*
X607417Y279417D02*
X608000Y280000D01*
X643975D02*
X652125Y288150D01*
X608000Y280000D02*
X643975D01*
X523935Y286000D02*
X534517Y275417D01*
X416732Y284000D02*
X427314Y273417D01*
X535346Y277417D02*
X644221D01*
X534517Y275417D02*
X731417D01*
X536174Y279417D02*
X607417D01*
X427314Y273417D02*
X703658D01*
X525592Y290000D02*
X536174Y279417D01*
X703658Y273417D02*
X706650Y270426D01*
X731417Y275417D02*
X732000Y276000D01*
X644221Y277417D02*
X652953Y286150D01*
X524763Y288000D02*
X535346Y277417D01*
X717564Y294988D02*
X727402Y304826D01*
X733174Y310598D02*
X736650Y314074D01*
X707729Y298650D02*
X715271D01*
X702821Y288150D02*
X706850Y292179D01*
X652125Y288150D02*
X702821D01*
X727402Y304826D02*
Y305240D01*
X706850Y297771D02*
X707729Y298650D01*
X706850Y292179D02*
Y297771D01*
X732689Y310598D02*
X732760Y310598D01*
X716735Y294988D02*
X717564D01*
X716150Y295574D02*
X716735Y294988D01*
X727402Y305241D02*
Y305311D01*
X716150Y295574D02*
Y297771D01*
X715271Y298650D02*
X716150Y297771D01*
X732760Y310598D02*
X733174Y310598D01*
X736650Y314074D02*
Y337926D01*
X733926Y340650D02*
X736650Y337926D01*
X732701Y340650D02*
X733926D01*
X732000Y341350D02*
X732701Y340650D01*
X732000Y341350D02*
Y346000D01*
X637507Y335650D02*
X712350D01*
X732000Y316000D01*
X724828Y326000D02*
X732000D01*
X421598Y290000D02*
X525592D01*
X418098Y293500D02*
X421598Y290000D01*
X417827Y293500D02*
X418098D01*
X571210Y298640D02*
X575850Y294000D01*
X574193Y290000D02*
X585193D01*
X588842Y293650D01*
X575850Y294000D02*
X575925D01*
X567500Y296693D02*
X574193Y290000D01*
X588000Y285000D02*
X591000Y282000D01*
X597154D01*
X588000Y285000D02*
X593000Y290000D01*
X567500Y296693D02*
Y333468D01*
X600673Y282000D02*
Y286173D01*
X604000Y289500D02*
Y293000D01*
X600673Y286173D02*
X604000Y289500D01*
Y293000D02*
X604500Y293500D01*
X593000Y290000D02*
Y293047D01*
X396843Y286000D02*
X523935D01*
X381843Y301000D02*
X396843Y286000D01*
X377000Y297000D02*
X390000Y284000D01*
X416732D01*
X371870Y301000D02*
X381843D01*
X400500Y288000D02*
X524763D01*
X588842Y293650D02*
Y301105D01*
X606000Y405000D02*
X607000Y406000D01*
X578659Y299000D02*
X584842D01*
X588500Y301447D02*
Y309984D01*
Y301447D02*
X588842Y301105D01*
X573772Y303887D02*
X578659Y299000D01*
X573772Y303887D02*
Y315724D01*
X571210Y298640D02*
Y319038D01*
X574102Y352071D02*
X576000D01*
X576484Y351587D01*
X571210Y319038D02*
X575617Y323445D01*
X579043D01*
X579921Y324324D02*
Y325421D01*
X586208Y331708D01*
X579043Y323445D02*
X579921Y324324D01*
X586208Y331708D02*
X587622D01*
X588500Y332586D01*
X569265Y344265D02*
X570431D01*
X568500Y343500D02*
X569265Y344265D01*
X570431D02*
X574000Y347835D01*
X592622Y329382D02*
X593500Y330260D01*
X591378Y328796D02*
X591964Y329382D01*
X579871Y321445D02*
X585808Y327382D01*
X591378Y328261D02*
Y328796D01*
X574000Y319000D02*
X576445Y321445D01*
X574000Y315952D02*
Y319000D01*
X591964Y329382D02*
X592622D01*
X573772Y315724D02*
X574000Y315952D01*
X590499Y327382D02*
X591378Y328261D01*
X576445Y321445D02*
X579871D01*
X585808Y327382D02*
X590499D01*
X531500Y299000D02*
Y307500D01*
X393500Y295000D02*
X400500Y288000D01*
X652953Y286150D02*
X703650D01*
X711500Y294000D01*
X367370Y296500D02*
X371870Y301000D01*
X359500Y296500D02*
X367370D01*
X590228Y270091D02*
X596468Y263850D01*
X706650Y269201D02*
Y270426D01*
X470925Y270091D02*
X590228D01*
X465827Y264992D02*
X470925Y270091D01*
X707350Y268500D02*
X712000D01*
X706650Y269201D02*
X707350Y268500D01*
X596468Y263850D02*
X726426D01*
X737000Y274425D01*
X733926Y280650D02*
X737000Y277575D01*
Y274425D02*
Y277575D01*
X712350Y280650D02*
X733926D01*
X465827Y264008D02*
Y264992D01*
X406922Y275000D02*
X420831Y261090D01*
X442402D01*
X444583Y258910D01*
X460728D01*
X465827Y264008D01*
X393500Y275000D02*
X406922D01*
X711500Y281500D02*
X712350Y280650D01*
X388500Y280000D02*
X393500Y275000D01*
X374000Y280000D02*
X388500D01*
X461500Y415500D02*
X512843D01*
X552047Y355500D02*
Y364500D01*
Y344000D02*
Y355500D01*
X542000Y356500D02*
X551047D01*
X552047Y355500D01*
Y344000D02*
X552547Y343500D01*
X574000Y347835D02*
Y348031D01*
X608500Y337740D02*
X609378Y338618D01*
X615118D02*
X622000Y345500D01*
X608500Y334000D02*
Y337740D01*
X609378Y338618D02*
X615118D01*
X618500Y349000D02*
X622000Y345500D01*
X614673Y349000D02*
X618500D01*
X603500Y300406D02*
Y309984D01*
Y300406D02*
X604500Y299406D01*
X593000Y298953D02*
X593500Y299453D01*
Y309984D01*
X605000Y348327D02*
X611500D01*
X605000Y339240D02*
Y348327D01*
X603500Y337740D02*
X605000Y339240D01*
X603500Y334000D02*
Y337740D01*
X598250Y351923D02*
X598500Y351673D01*
X592750Y351923D02*
X598250D01*
X598500Y351673D02*
X605000D01*
X574000Y351969D02*
X574102Y352071D01*
X557953Y352000D02*
Y364500D01*
Y344000D02*
Y352000D01*
X557984Y351969D02*
X574000D01*
X557953Y352000D02*
X557984Y351969D01*
X557953Y344000D02*
X558453Y343500D01*
X712500Y497267D02*
X719500Y490267D01*
Y459000D02*
Y490267D01*
X712500Y497267D02*
Y528673D01*
X481582Y532000D02*
X483082Y533500D01*
X480500Y532000D02*
X481582D01*
X483082Y533500D02*
X492000D01*
X742937Y502969D02*
X739001D01*
Y504936D01*
X739657Y505592D01*
X740969D01*
X741625Y504936D01*
Y502969D01*
X739657Y509528D02*
X739001Y508872D01*
Y507560D01*
X739657Y506904D01*
X742281D01*
X742937Y507560D01*
Y508872D01*
X742281Y509528D01*
X739001Y510840D02*
X742937D01*
Y512808D01*
X742281Y513464D01*
X741625D01*
X740969Y512808D01*
Y510840D01*
Y512808D01*
X740313Y513464D01*
X739657D01*
X739001Y512808D01*
Y510840D01*
Y521335D02*
Y518712D01*
X742937D01*
Y521335D01*
X740969Y518712D02*
Y520023D01*
X739001Y522647D02*
X742937D01*
Y524615D01*
X742281Y525271D01*
X739657D01*
X739001Y524615D01*
Y522647D01*
X739657Y529207D02*
X739001Y528551D01*
Y527239D01*
X739657Y526583D01*
X742281D01*
X742937Y527239D01*
Y528551D01*
X742281Y529207D01*
X740969D01*
Y527895D01*
X739001Y533143D02*
Y530519D01*
X742937D01*
Y533143D01*
X740969Y530519D02*
Y531831D01*
D30*
X727189Y471768D02*
D03*
Y489287D02*
D03*
D31*
X514500Y405000D02*
D03*
X533500Y417922D02*
D03*
X523500Y398000D02*
D03*
X533500Y411328D02*
D03*
X514583Y411074D02*
D03*
X516000Y418000D02*
D03*
X493890Y391000D02*
D03*
X491000Y400000D02*
D03*
X411000Y397000D02*
D03*
D03*
X644500Y315500D02*
D03*
X587000Y349000D02*
D03*
X627000Y357000D02*
D03*
X649000Y361500D02*
D03*
X446500Y489591D02*
D03*
X520000Y469000D02*
D03*
X516500Y485500D02*
D03*
X513172Y461672D02*
D03*
X505000Y474765D02*
D03*
X346000Y237500D02*
D03*
X636500Y347000D02*
D03*
X582000Y343500D02*
D03*
X595500Y343000D02*
D03*
X575925Y294000D02*
D03*
X588000Y285000D02*
D03*
X394500Y280000D02*
D03*
X611000Y412000D02*
D03*
X597500Y398500D02*
D03*
X607000Y405000D02*
D03*
X621500Y417000D02*
D03*
X584842Y299000D02*
D03*
X568500Y343500D02*
D03*
X542000Y299000D02*
D03*
X532000Y298500D02*
D03*
X374000Y280000D02*
D03*
X393500Y295000D02*
D03*
X377000Y297000D02*
D03*
X359500Y296500D02*
D03*
X622000Y345500D02*
D03*
X637500Y425000D02*
D03*
Y437000D02*
D03*
X451500Y322500D02*
D03*
X548500Y303000D02*
D03*
X542000Y356500D02*
D03*
X677000Y478500D02*
D03*
X674000Y492500D02*
D03*
X370000Y258500D02*
D03*
X357000Y278500D02*
D03*
X336000Y286000D02*
D03*
X395000Y271000D02*
D03*
X485000Y486000D02*
D03*
X489000Y492000D02*
D03*
X553000Y315000D02*
D03*
X512500Y381000D02*
D03*
X719500Y459000D02*
D03*
X416500Y481000D02*
D03*
X398000Y442500D02*
D03*
X389500Y358453D02*
D03*
X394500Y419500D02*
D03*
Y405500D02*
D03*
X453500Y442000D02*
D03*
X450000Y414500D02*
D03*
X461500Y415500D02*
D03*
X510000Y573000D02*
D03*
X532000Y481000D02*
D03*
X526500Y475000D02*
D03*
X559500Y546000D02*
D03*
X469000Y531500D02*
D03*
X480500Y532000D02*
D03*
D32*
X458429Y357500D02*
D03*
X446224D02*
D03*
D41*
X350000Y343500D02*
D03*
X340000D02*
D03*
X350000Y353500D02*
D03*
X340000D02*
D03*
X350000Y363500D02*
D03*
X340000D02*
D03*
X350000Y373500D02*
D03*
X340000D02*
D03*
X350000Y383500D02*
D03*
X340000D02*
D03*
X350000Y395000D02*
D03*
X340000D02*
D03*
X350000Y405000D02*
D03*
X340000D02*
D03*
X350000Y415000D02*
D03*
X340000D02*
D03*
X350000Y425000D02*
D03*
X340000D02*
D03*
X350000Y435000D02*
D03*
X340000D02*
D03*
X350000Y447000D02*
D03*
X340000D02*
D03*
X350000Y457000D02*
D03*
X340000D02*
D03*
X350000Y467000D02*
D03*
X340000D02*
D03*
X350000Y477000D02*
D03*
X340000D02*
D03*
X350000Y487000D02*
D03*
X340000D02*
D03*
X350000Y499000D02*
D03*
X340000D02*
D03*
X350000Y509000D02*
D03*
X340000D02*
D03*
X350000Y519000D02*
D03*
X340000D02*
D03*
X350000Y529000D02*
D03*
X340000D02*
D03*
X350000Y539000D02*
D03*
X340000D02*
D03*
D43*
X586000Y441000D02*
D03*
X572500Y447000D02*
D03*
X596500Y455000D02*
D03*
X560000Y449000D02*
D03*
X448000Y479000D02*
D03*
X502000Y308000D02*
D03*
X508500Y327500D02*
D03*
X481000Y305000D02*
D03*
X523000Y305500D02*
D03*
X510500Y299000D02*
D03*
X491000Y336000D02*
D03*
X473000Y559000D02*
D03*
X492000Y353500D02*
D03*
X483500Y324500D02*
D03*
X471500Y479500D02*
D03*
X459500Y474000D02*
D03*
X440500Y256500D02*
D03*
X458827Y263500D02*
D03*
X472827Y265500D02*
D03*
D59*
X739000Y496965D02*
D03*
Y464090D02*
D03*
D61*
X497000Y533500D02*
D03*
X492000D02*
D03*
D62*
X406827Y251000D02*
D03*
Y246000D02*
D03*
D64*
X502000Y533500D02*
D03*
D79*
X574000Y348031D02*
D03*
Y351969D02*
D03*
D148*
X558453Y343500D02*
D03*
X552547D02*
D03*
X557953Y364500D02*
D03*
X552047D02*
D03*
D151*
X593000Y298953D02*
D03*
Y293047D02*
D03*
X604500Y299406D02*
D03*
Y293500D02*
D03*
D154*
X605000Y351673D02*
D03*
Y348327D02*
D03*
X598500Y351673D02*
D03*
Y348327D02*
D03*
X592500Y352173D02*
D03*
Y348827D02*
D03*
X579500Y352673D02*
D03*
Y349327D02*
D03*
D156*
X597327Y282000D02*
D03*
X600673D02*
D03*
X614673Y349000D02*
D03*
X611327D02*
D03*
D195*
X404500Y343000D02*
D03*
X394500D02*
D03*
X384500D02*
D03*
X374500D02*
D03*
X404500Y313000D02*
D03*
X394500D02*
D03*
X384500D02*
D03*
D196*
X374500D02*
D03*
D197*
X360000Y225500D02*
D03*
X711500Y254500D02*
D03*
X708000Y356000D02*
D03*
X708500Y319500D02*
D03*
X708000Y331000D02*
D03*
X712000Y268500D02*
D03*
X708500Y343500D02*
D03*
X711500Y294000D02*
D03*
Y281500D02*
D03*
D198*
X370000Y225500D02*
D03*
X380000D02*
D03*
X711000Y449000D02*
D03*
Y439000D02*
D03*
Y419000D02*
D03*
Y399000D02*
D03*
Y389000D02*
D03*
Y409000D02*
D03*
Y429000D02*
D03*
X701500Y254500D02*
D03*
X698000Y356000D02*
D03*
X698500Y319500D02*
D03*
X694000Y411500D02*
D03*
X698000Y331000D02*
D03*
X702000Y268500D02*
D03*
X698500Y343500D02*
D03*
X701500Y294000D02*
D03*
Y281500D02*
D03*
X599500Y540000D02*
D03*
X732000Y276000D02*
D03*
Y286000D02*
D03*
Y306000D02*
D03*
Y326000D02*
D03*
Y336000D02*
D03*
Y316000D02*
D03*
Y296000D02*
D03*
X726000Y402500D02*
D03*
D199*
X711000Y379000D02*
D03*
X694000Y421500D02*
D03*
X599500Y530000D02*
D03*
X732000Y346000D02*
D03*
X726000Y392500D02*
D03*
D200*
X406827Y256000D02*
D03*
D201*
X417827Y273500D02*
D03*
D202*
Y293500D02*
D03*
X428000Y492000D02*
D03*
D203*
X408000D02*
D03*
D204*
X712500Y528673D02*
D03*
Y488673D02*
D03*
D205*
X602343Y509500D02*
D03*
X549157Y505500D02*
D03*
X697500Y505158D02*
D03*
X658500Y504658D02*
D03*
D206*
X582657Y509500D02*
D03*
X568843Y505500D02*
D03*
D207*
X697500Y524843D02*
D03*
X658500Y524342D02*
D03*
D208*
X613000Y250500D02*
D03*
X623000D02*
D03*
X633000D02*
D03*
X653000D02*
D03*
X643000D02*
D03*
D209*
X663000D02*
D03*
D210*
X553500Y260000D02*
D03*
Y250000D02*
D03*
X543500Y260000D02*
D03*
X563500Y250000D02*
D03*
Y260000D02*
D03*
X573500Y250000D02*
D03*
X583500D02*
D03*
X573500Y260000D02*
D03*
X583500D02*
D03*
D211*
X543500Y250000D02*
D03*
D221*
X732760Y310598D02*
D03*
D222*
X588500Y309984D02*
D03*
X593500D02*
D03*
X598500D02*
D03*
X603500D02*
D03*
X608500D02*
D03*
Y334000D02*
D03*
X603500D02*
D03*
X598500D02*
D03*
X593500D02*
D03*
X588500D02*
D03*
D223*
X576846Y309984D02*
D03*
X620154D02*
D03*
Y334000D02*
D03*
D224*
X576846Y332031D02*
D03*
M02*
