M48
;Layer_Color=9474304
;FILE_FORMAT=4:4
METRIC,LZ
;TYPE=PLATED
T3F00S00C0.7000
T4F00S00C0.7112
T5F00S00C0.7620
T6F00S00C0.8000
T7F00S00C0.8500
T8F00S00C0.9000
T9F00S00C1.0200
T10F00S00C1.1000
T11F00S00C1.3000
;TYPE=NON_PLATED
T12F00S00C0.7620
%
T03
X0113341Y0090805
X0116441
T04
X0135128Y0075819
X0137668Y0075946
X0139319Y0076962
X01462849Y0074676
X014855Y0075946
X0149352Y007239
X0100203Y007112
X010033Y0068834
X0099949Y007493
X0095758Y0075438
X0091313Y0075311
X0090678Y0070739
X0094996Y007112
X009398Y0065659
X0087884Y0060325
X0085344Y0072644
X0098933Y0091047
X0100203Y0102997
Y0106553
X0101092Y0112395
X0115189Y0112268
X01143Y0105283
X0117221Y0105537
X0104394Y0100838
X0114681Y0081915
X0140462Y008001
X0144399Y0087249
X0147828
X0149098Y0088646
X0151257Y0087122
X0157988Y0087757
X0157861Y0105918
X0155194Y0104648
X0154178Y010287
X0151765Y0101219
X0132969Y0101092
X0130683Y010287
X0130704Y01044128
X0131064Y0106172
X0135509Y01061521
Y01044774
X0130175Y0096774
X0125448Y0099314
X0124714Y01016
X01303456Y01172646
X0137668Y0090551
X0159258Y0090678
X0161671Y0088138
X0164846Y0091821
X0163703Y0080137
X0161925Y010795
Y0110998
X0182753Y0116586
X0171958Y0121539
X0171196Y0125095
X0135128Y0122174
X0133731Y012065
X013208Y0119126
X0131191Y0123317
X012827Y01205903
X012319Y0123444
X0124206Y0124968
X0122047Y0135128
X0119126Y0135001
X012954Y0145542
X0142113Y0138684
X0113411Y0124356
X0105791Y0122174
T05
X008636Y0087249
X00889
Y0089789
X008636
Y0092329
X00889
Y0094869
X008636
Y0097409
X00889
Y010033
X008636
Y010287
X00889
Y010541
X008636
Y010795
X00889
Y011049
X008636
Y0113538
X00889
Y0116078
X008636
Y0118618
X00889
Y0121158
X008636
Y0123698
X00889
Y0126746
X008636
Y0129286
X00889
Y0131826
X008636
Y0134366
X00889
Y0136906
X008636
T06
X0103334Y0062484
Y0063754
Y0065024
X0167259Y0128183
X0167259Y0133183
X0177165Y013331
X0177165Y012831
X0152995Y0129413
X0147995Y0129413
X0144486Y0128397
X0139486Y0128397
X0127508Y0135509
X0126238
X0124968
T07
X0180975Y0124123
Y0134283
T08
X0095123Y0079502
X0097663
X0100203
X0102743
Y0087122
X0100203
X0097663
X0095123
T09
X0120098Y0067437
X0122174Y007747
X0127508Y0078232
X0129667Y0075946
X0132842Y0077597
X0116542Y0066929
X0111887Y0065151
X0122809Y0082423
X0124714Y0085344
X0124968Y0089789
X0129159Y0083185
X014224Y0114046
X0145415Y0113538
X0148844Y0112014
X0151511Y011557
X0119761Y0121793
X0120142Y0141986
X0116713Y0120396
X0113792Y0121666
T10
X0178181Y0064643
X0180721
X0180848Y0068199
X0178308
X0178181Y0071501
X0180721
Y0074676
X0178181
X0185928Y0075184
Y0072644
Y0070104
Y0077724
X0148209Y006604
Y00635
X0145669
X0143129
X0140589
Y006604
X0138049
Y00635
X0143129Y006604
X0145669
X0106128Y0069469
Y0074549
X009652Y0057277
X009398
X009144
X0177419Y0081153
X0179959
X0179832Y0084074
X0177292
X0177419Y0087249
X0179959
X0179832Y0090424
X0177292
X0180594Y0096266
Y0098806
Y0101346
Y0103886
Y0106426
Y0108966
Y0111506
Y0114046
X0176276Y0107061
Y0104521
X0184404Y0102235
Y0099695
X0185928Y0087884
Y0085344
Y0082804
Y0080264
X0152273Y013462
Y013716
X0108712Y0124968
X0103632
T11
X0160782Y0063627
X0163322
X0165862
X0168402
X0158242
X0155702
T12
X0183769Y0058547
X0084963Y0080772
X0184658Y0142875
X0102743Y0139192
M30
