G04*
G04 #@! TF.GenerationSoftware,Altium Limited,Altium Designer,22.0.2 (36)*
G04*
G04 Layer_Physical_Order=3*
G04 Layer_Color=128*
%FSLAX25Y25*%
%MOIN*%
G70*
G04*
G04 #@! TF.SameCoordinates,5FA76A90-C183-4406-A071-8446DD7401C7*
G04*
G04*
G04 #@! TF.FilePolarity,Negative*
G04*
G01*
G75*
D10*
X717800Y471673D02*
X717133D01*
X717000Y471540D01*
Y471273D01*
X717133Y471140D01*
X717800D01*
X717000Y470474D02*
X717800D01*
X717400Y470873D01*
Y470340D01*
D12*
X744709Y458874D02*
Y502181D01*
D18*
X742937Y502969D02*
X739001D01*
Y504936D01*
X739657Y505592D01*
X740969D01*
X741625Y504936D01*
Y502969D01*
X739657Y509528D02*
X739001Y508872D01*
Y507560D01*
X739657Y506904D01*
X742281D01*
X742937Y507560D01*
Y508872D01*
X742281Y509528D01*
X739001Y510840D02*
X742937D01*
Y512808D01*
X742281Y513464D01*
X741625D01*
X740969Y512808D01*
Y510840D01*
Y512808D01*
X740313Y513464D01*
X739657D01*
X739001Y512808D01*
Y510840D01*
Y521335D02*
Y518712D01*
X742937D01*
Y521335D01*
X740969Y518712D02*
Y520023D01*
X739001Y522647D02*
X742937D01*
Y524615D01*
X742281Y525271D01*
X739657D01*
X739001Y524615D01*
Y522647D01*
X739657Y529207D02*
X739001Y528551D01*
Y527239D01*
X739657Y526583D01*
X742281D01*
X742937Y527239D01*
Y528551D01*
X742281Y529207D01*
X740969D01*
Y527895D01*
X739001Y533143D02*
Y530519D01*
X742937D01*
Y533143D01*
X740969Y530519D02*
Y531831D01*
D27*
X316000Y214500D02*
Y579000D01*
X744500D01*
Y214500D02*
Y579000D01*
X316000Y214500D02*
X744500D01*
D48*
X458429Y357500D02*
D03*
X446224D02*
D03*
D49*
X514500Y405000D02*
D03*
X533500Y417922D02*
D03*
X523500Y398000D02*
D03*
X533500Y411328D02*
D03*
X514583Y411074D02*
D03*
X516000Y418000D02*
D03*
X493890Y391000D02*
D03*
X491000Y400000D02*
D03*
X411000Y397000D02*
D03*
D03*
X644500Y315500D02*
D03*
X587000Y349000D02*
D03*
X627000Y357000D02*
D03*
X649000Y361500D02*
D03*
X520000Y469000D02*
D03*
X516500Y485500D02*
D03*
X513172Y461672D02*
D03*
X505000Y474765D02*
D03*
X346000Y237500D02*
D03*
X636500Y347000D02*
D03*
X582000Y343500D02*
D03*
X595500Y343000D02*
D03*
X575925Y294000D02*
D03*
X588000Y285000D02*
D03*
X394500Y280000D02*
D03*
X611000Y412000D02*
D03*
X597500Y398500D02*
D03*
X607000Y405000D02*
D03*
X621500Y417000D02*
D03*
X584842Y299000D02*
D03*
X542000D02*
D03*
X532000Y298500D02*
D03*
X374000Y280000D02*
D03*
X393500Y295000D02*
D03*
X377000Y297000D02*
D03*
X359500Y296500D02*
D03*
X622000Y345500D02*
D03*
X637500Y437000D02*
D03*
X451500Y322500D02*
D03*
X542000Y356500D02*
D03*
X677000Y478500D02*
D03*
X674000Y492500D02*
D03*
X370000Y258500D02*
D03*
X357000Y278500D02*
D03*
X485000Y486000D02*
D03*
X489000Y492000D02*
D03*
X553000Y315000D02*
D03*
X512500Y381000D02*
D03*
X719500Y459000D02*
D03*
X416500Y481000D02*
D03*
X398000Y442500D02*
D03*
X394500Y405500D02*
D03*
X453500Y442000D02*
D03*
X450000Y414500D02*
D03*
X461500Y415500D02*
D03*
X532000Y481000D02*
D03*
X526500Y475000D02*
D03*
X559500Y546000D02*
D03*
X480500Y532000D02*
D03*
D50*
X727000Y562500D02*
D03*
X404500Y548000D02*
D03*
X723500Y230500D02*
D03*
X334500Y318000D02*
D03*
X350000Y343500D02*
D03*
X340000D02*
D03*
X350000Y353500D02*
D03*
X340000D02*
D03*
X350000Y363500D02*
D03*
X340000D02*
D03*
X350000Y373500D02*
D03*
X340000D02*
D03*
X350000Y383500D02*
D03*
X340000D02*
D03*
X350000Y395000D02*
D03*
X340000D02*
D03*
X350000Y405000D02*
D03*
X340000D02*
D03*
X350000Y415000D02*
D03*
X340000D02*
D03*
X350000Y425000D02*
D03*
X340000D02*
D03*
X350000Y435000D02*
D03*
X340000D02*
D03*
X350000Y447000D02*
D03*
X340000D02*
D03*
Y457000D02*
D03*
X350000Y467000D02*
D03*
X340000D02*
D03*
X350000Y477000D02*
D03*
X340000D02*
D03*
X350000Y487000D02*
D03*
X340000D02*
D03*
X350000Y499000D02*
D03*
X340000D02*
D03*
X350000Y509000D02*
D03*
X340000D02*
D03*
X350000Y519000D02*
D03*
X340000D02*
D03*
X350000Y529000D02*
D03*
X340000D02*
D03*
Y539000D02*
D03*
D53*
X406827Y251000D02*
D03*
Y246000D02*
D03*
X497000Y533500D02*
D03*
X492000D02*
D03*
D57*
X727189Y471768D02*
D03*
Y489287D02*
D03*
D74*
X739000Y496965D02*
D03*
Y464090D02*
D03*
D131*
X446500Y489591D02*
D03*
X568500Y343500D02*
D03*
X637500Y425000D02*
D03*
X548500Y303000D02*
D03*
X336000Y286000D02*
D03*
X395000Y271000D02*
D03*
X389500Y358453D02*
D03*
X394500Y419500D02*
D03*
X510000Y573000D02*
D03*
X469000Y531500D02*
D03*
D132*
X350000Y457000D02*
D03*
Y539000D02*
D03*
D212*
X374500Y343000D02*
D03*
X404500Y313000D02*
D03*
X394500D02*
D03*
X384500D02*
D03*
D213*
X404500Y343000D02*
D03*
X394500D02*
D03*
X384500D02*
D03*
X374500Y313000D02*
D03*
D214*
X586000Y441000D02*
D03*
X572500Y447000D02*
D03*
X596500Y455000D02*
D03*
X560000Y449000D02*
D03*
X448000Y479000D02*
D03*
X502000Y308000D02*
D03*
X508500Y327500D02*
D03*
X481000Y305000D02*
D03*
X523000Y305500D02*
D03*
X510500Y299000D02*
D03*
X491000Y336000D02*
D03*
X473000Y559000D02*
D03*
X492000Y353500D02*
D03*
X483500Y324500D02*
D03*
X471500Y479500D02*
D03*
X459500Y474000D02*
D03*
X440500Y256500D02*
D03*
X458827Y263500D02*
D03*
X472827Y265500D02*
D03*
D215*
X360000Y225500D02*
D03*
X370000D02*
D03*
X380000D02*
D03*
X711000Y449000D02*
D03*
Y439000D02*
D03*
Y419000D02*
D03*
Y399000D02*
D03*
Y379000D02*
D03*
Y389000D02*
D03*
Y409000D02*
D03*
Y429000D02*
D03*
X417827Y273500D02*
D03*
Y293500D02*
D03*
X711500Y254500D02*
D03*
X701500D02*
D03*
X708000Y356000D02*
D03*
X698000D02*
D03*
X708500Y319500D02*
D03*
X698500D02*
D03*
X694000Y421500D02*
D03*
X708000Y331000D02*
D03*
X698000D02*
D03*
X712000Y268500D02*
D03*
X702000D02*
D03*
X708500Y343500D02*
D03*
X698500D02*
D03*
X711500Y294000D02*
D03*
X701500D02*
D03*
X711500Y281500D02*
D03*
X701500D02*
D03*
X408000Y492000D02*
D03*
X428000D02*
D03*
X599500Y530000D02*
D03*
Y540000D02*
D03*
X732000Y276000D02*
D03*
Y286000D02*
D03*
Y306000D02*
D03*
Y326000D02*
D03*
Y346000D02*
D03*
Y336000D02*
D03*
Y316000D02*
D03*
Y296000D02*
D03*
X553500Y260000D02*
D03*
Y250000D02*
D03*
X543500Y260000D02*
D03*
Y250000D02*
D03*
X563500D02*
D03*
Y260000D02*
D03*
X573500Y250000D02*
D03*
X583500D02*
D03*
X573500Y260000D02*
D03*
X583500D02*
D03*
X726000Y392500D02*
D03*
Y402500D02*
D03*
D216*
X694000Y411500D02*
D03*
D217*
X406827Y256000D02*
D03*
X502000Y533500D02*
D03*
X602343Y509500D02*
D03*
X582657Y509500D02*
D03*
X549157Y505500D02*
D03*
X568843Y505500D02*
D03*
X697500Y505158D02*
D03*
X658500Y504658D02*
D03*
X658500Y524342D02*
D03*
D218*
X712500Y528673D02*
D03*
Y488673D02*
D03*
D219*
X697500Y524843D02*
D03*
D220*
X613000Y250500D02*
D03*
X623000D02*
D03*
X633000D02*
D03*
X663000D02*
D03*
X653000D02*
D03*
X643000D02*
D03*
M02*
