G04*
G04 #@! TF.GenerationSoftware,Altium Limited,Altium Designer,22.0.2 (36)*
G04*
G04 Layer_Color=32768*
%FSLAX25Y25*%
%MOIN*%
G70*
G04*
G04 #@! TF.SameCoordinates,5FA76A90-C183-4406-A071-8446DD7401C7*
G04*
G04*
G04 #@! TF.FilePolarity,Positive*
G04*
G01*
G75*
D10*
X717800Y471673D02*
X717133D01*
X717000Y471540D01*
Y471273D01*
X717133Y471140D01*
X717800D01*
X717000Y470474D02*
X717800D01*
X717400Y470873D01*
Y470340D01*
D12*
X387531Y328000D02*
X391469D01*
X389500Y326031D02*
Y329969D01*
X597917Y282000D02*
X600083D01*
X599000Y280917D02*
Y283083D01*
X337000Y264319D02*
Y266681D01*
X335819Y265500D02*
X338181D01*
X333457Y266878D02*
X340543D01*
X333457Y264122D02*
X340543D01*
X333457D02*
Y266878D01*
X340543Y264122D02*
Y266878D01*
X525319Y332000D02*
X527681D01*
X526500Y330819D02*
Y333181D01*
X527878Y328457D02*
Y335543D01*
X525122Y328457D02*
Y335543D01*
X527878D01*
X525122Y328457D02*
X527878D01*
X404858Y251000D02*
X408795D01*
X406827Y249031D02*
Y252969D01*
X403327Y273417D02*
Y275583D01*
X402244Y274500D02*
X404409D01*
X406500Y290917D02*
Y293083D01*
X405417Y292000D02*
X407583D01*
X572819Y350000D02*
X575181D01*
X574000Y348819D02*
Y351181D01*
X575378Y346457D02*
Y353543D01*
X572622Y346457D02*
Y353543D01*
Y346457D02*
X575378D01*
X572622Y353543D02*
X575378D01*
X611917Y349000D02*
X614083D01*
X613000Y347917D02*
Y350083D01*
X605000Y348917D02*
Y351083D01*
X603917Y350000D02*
X606083D01*
X598500Y348917D02*
Y351083D01*
X597417Y350000D02*
X599583D01*
X592500Y349417D02*
Y351583D01*
X591417Y350500D02*
X593583D01*
X579500Y349917D02*
Y352083D01*
X578417Y351000D02*
X580583D01*
X576138Y532531D02*
Y536469D01*
X574169Y534500D02*
X578106D01*
X399917Y377000D02*
X402083D01*
X401000Y375917D02*
Y378083D01*
X400417Y369000D02*
X402583D01*
X401500Y367917D02*
Y370083D01*
X401417Y362327D02*
X403583D01*
X402500Y361244D02*
Y363409D01*
X504500Y486917D02*
Y489083D01*
X503417Y488000D02*
X505583D01*
X499000Y491917D02*
Y494083D01*
X497917Y493000D02*
X500083D01*
X503000Y555417D02*
Y557583D01*
X501917Y556500D02*
X504083D01*
X462417Y422500D02*
X464583D01*
X463500Y421417D02*
Y423583D01*
X708244Y478173D02*
X710409D01*
X709327Y477091D02*
Y479256D01*
X458090Y427500D02*
X460256D01*
X459173Y426417D02*
Y428583D01*
X708917Y463673D02*
X711083D01*
X710000Y462591D02*
Y464756D01*
X411417Y509000D02*
X413583D01*
X412500Y507917D02*
Y510083D01*
X444244Y496500D02*
X446410D01*
X445327Y495417D02*
Y497583D01*
X497000Y531531D02*
Y535468D01*
X495031Y533500D02*
X498969D01*
X377095Y373555D02*
X381031D01*
X379063Y371587D02*
Y375524D01*
X733095Y478559D02*
Y482496D01*
X731126Y480527D02*
X735063D01*
X427969Y430319D02*
Y432681D01*
X426787Y431500D02*
X429150D01*
X424425Y432878D02*
X431512D01*
X424425Y430122D02*
X431512D01*
X424425D02*
Y432878D01*
X431512Y430122D02*
Y432878D01*
X418744Y256000D02*
X420910D01*
X419827Y254917D02*
Y257083D01*
X359500Y287417D02*
Y289583D01*
X358417Y288500D02*
X360583D01*
X366000Y287917D02*
Y290083D01*
X364917Y289000D02*
X367083D01*
X372500Y287917D02*
Y290083D01*
X371417Y289000D02*
X373583D01*
X380000Y288244D02*
Y290409D01*
X378917Y289327D02*
X381083D01*
X388500Y288417D02*
Y290583D01*
X387417Y289500D02*
X389583D01*
X385500Y299917D02*
Y302083D01*
X384417Y301000D02*
X386583D01*
X725500Y438031D02*
Y441968D01*
X723531Y440000D02*
X727468D01*
X744709Y458874D02*
Y502181D01*
D18*
X742937Y502969D02*
X739001D01*
Y504936D01*
X739657Y505592D01*
X740969D01*
X741625Y504936D01*
Y502969D01*
X739657Y509528D02*
X739001Y508872D01*
Y507560D01*
X739657Y506904D01*
X742281D01*
X742937Y507560D01*
Y508872D01*
X742281Y509528D01*
X739001Y510840D02*
X742937D01*
Y512808D01*
X742281Y513464D01*
X741625D01*
X740969Y512808D01*
Y510840D01*
Y512808D01*
X740313Y513464D01*
X739657D01*
X739001Y512808D01*
Y510840D01*
Y521335D02*
Y518712D01*
X742937D01*
Y521335D01*
X740969Y518712D02*
Y520023D01*
X739001Y522647D02*
X742937D01*
Y524615D01*
X742281Y525271D01*
X739657D01*
X739001Y524615D01*
Y522647D01*
X739657Y529207D02*
X739001Y528551D01*
Y527239D01*
X739657Y526583D01*
X742281D01*
X742937Y527239D01*
Y528551D01*
X742281Y529207D01*
X740969D01*
Y527895D01*
X739001Y533143D02*
Y530519D01*
X742937D01*
Y533143D01*
X740969Y530519D02*
Y531831D01*
D225*
X595457Y280228D02*
Y283772D01*
X602543Y280228D02*
Y283772D01*
X595457Y280228D02*
X602543D01*
X595457Y283772D02*
X602543D01*
X368032Y225500D02*
X371969D01*
X370000Y223532D02*
Y227468D01*
X353622Y231583D02*
X386378D01*
Y219417D02*
Y231583D01*
X353622Y219417D02*
X386378D01*
X353622D02*
Y231583D01*
X711000Y412032D02*
Y415969D01*
X709031Y414000D02*
X712968D01*
X704917Y372622D02*
Y455378D01*
X717083D01*
Y372622D02*
Y455378D01*
X704917Y372622D02*
X717083D01*
X401555Y270957D02*
X405098D01*
X401555Y278043D02*
X405098D01*
X401555Y270957D02*
Y278043D01*
X405098Y270957D02*
Y278043D01*
X404728Y295543D02*
X408272D01*
X404728Y288457D02*
X408272D01*
Y295543D01*
X404728Y288457D02*
Y295543D01*
X616543Y347228D02*
Y350772D01*
X609457Y347228D02*
Y350772D01*
X616543D01*
X609457Y347228D02*
X616543D01*
X603228Y353543D02*
X606772D01*
X603228Y346457D02*
X606772D01*
X603228D02*
Y353543D01*
X606772Y346457D02*
Y353543D01*
X596728D02*
X600272D01*
X596728Y346457D02*
X600272D01*
X596728D02*
Y353543D01*
X600272Y346457D02*
Y353543D01*
X590728Y354043D02*
X594272D01*
X590728Y346957D02*
X594272D01*
X590728D02*
Y354043D01*
X594272Y346957D02*
Y354043D01*
X577728Y354543D02*
X581272D01*
X577728Y347457D02*
X581272D01*
X577728D02*
Y354543D01*
X581272Y347457D02*
Y354543D01*
X704531Y254500D02*
X708468D01*
X706500Y252532D02*
Y256469D01*
X717878Y248417D02*
Y260583D01*
X695122D02*
X717878D01*
X695122Y248417D02*
Y260583D01*
Y248417D02*
X717878D01*
X701031Y356000D02*
X704969D01*
X703000Y354031D02*
Y357968D01*
X714378Y349917D02*
Y362083D01*
X691622D02*
X714378D01*
X691622Y349917D02*
Y362083D01*
Y349917D02*
X714378D01*
X701532Y319500D02*
X705469D01*
X703500Y317531D02*
Y321468D01*
X714878Y313417D02*
Y325583D01*
X692122D02*
X714878D01*
X692122Y313417D02*
Y325583D01*
Y313417D02*
X714878D01*
X694000Y414532D02*
Y418469D01*
X692031Y416500D02*
X695968D01*
X687917Y427878D02*
X700083D01*
X687917Y405122D02*
Y427878D01*
Y405122D02*
X700083D01*
Y427878D01*
X701031Y331000D02*
X704969D01*
X703000Y329031D02*
Y332968D01*
X714378Y324917D02*
Y337083D01*
X691622D02*
X714378D01*
X691622Y324917D02*
Y337083D01*
Y324917D02*
X714378D01*
X705031Y268500D02*
X708968D01*
X707000Y266531D02*
Y270468D01*
X718378Y262417D02*
Y274583D01*
X695622D02*
X718378D01*
X695622Y262417D02*
Y274583D01*
Y262417D02*
X718378D01*
X701532Y343500D02*
X705469D01*
X703500Y341531D02*
Y345468D01*
X714878Y337417D02*
Y349583D01*
X692122D02*
X714878D01*
X692122Y337417D02*
Y349583D01*
Y337417D02*
X714878D01*
X704531Y294000D02*
X708468D01*
X706500Y292032D02*
Y295969D01*
X717878Y287917D02*
Y300083D01*
X695122D02*
X717878D01*
X695122Y287917D02*
Y300083D01*
Y287917D02*
X717878D01*
X704531Y281500D02*
X708468D01*
X706500Y279532D02*
Y283469D01*
X717878Y275417D02*
Y287583D01*
X695122D02*
X717878D01*
X695122Y275417D02*
Y287583D01*
Y275417D02*
X717878D01*
X565705Y518358D02*
Y550642D01*
X586571D01*
Y518358D02*
Y550642D01*
X565705Y518358D02*
X586571D01*
X714843Y467614D02*
X720157D01*
X714843Y472732D02*
X720157D01*
Y467614D02*
Y472732D01*
X714843Y467614D02*
Y472732D01*
X716850Y470173D02*
X718150D01*
X717500Y469524D02*
Y470823D01*
X404543Y375228D02*
Y378772D01*
X397457Y375228D02*
Y378772D01*
Y375228D02*
X404543D01*
X397457Y378772D02*
X404543D01*
X405043Y367228D02*
Y370772D01*
X397957Y367228D02*
Y370772D01*
Y367228D02*
X405043D01*
X397957Y370772D02*
X405043D01*
X398957Y360555D02*
Y364098D01*
X406043Y360555D02*
Y364098D01*
X398957D02*
X406043D01*
X398957Y360555D02*
X406043D01*
X502728Y491543D02*
X506272D01*
X502728Y484457D02*
X506272D01*
Y491543D01*
X502728Y484457D02*
Y491543D01*
X497228Y496543D02*
X500772D01*
X497228Y489457D02*
X500772D01*
Y496543D01*
X497228Y489457D02*
Y496543D01*
X501228Y560043D02*
X504772D01*
X501228Y552957D02*
X504772D01*
Y560043D01*
X501228Y552957D02*
Y560043D01*
X467043Y420728D02*
Y424272D01*
X459957Y420728D02*
Y424272D01*
Y420728D02*
X467043D01*
X459957Y424272D02*
X467043D01*
X705784Y476402D02*
Y479945D01*
X712870Y476402D02*
Y479945D01*
X705784D02*
X712870D01*
X705784Y476402D02*
X712870D01*
X462716Y425728D02*
Y429272D01*
X455630Y425728D02*
Y429272D01*
Y425728D02*
X462716D01*
X455630Y429272D02*
X462716D01*
X706457Y461902D02*
Y465445D01*
X713543Y461902D02*
Y465445D01*
X706457D02*
X713543D01*
X706457Y461902D02*
X713543D01*
X416043Y507228D02*
Y510772D01*
X408957Y507228D02*
Y510772D01*
Y507228D02*
X416043D01*
X408957Y510772D02*
X416043D01*
X441784Y494728D02*
Y498272D01*
X448870Y494728D02*
Y498272D01*
X441784D02*
X448870D01*
X441784Y494728D02*
X448870D01*
X599500Y533032D02*
Y536969D01*
X597532Y535000D02*
X601469D01*
X593417Y523622D02*
X605583D01*
Y546378D01*
X593417D02*
X605583D01*
X593417Y523622D02*
Y546378D01*
X373158Y363457D02*
X384968D01*
X373158D02*
Y383535D01*
X384968D01*
Y363457D02*
Y383535D01*
X724335Y461335D02*
Y499720D01*
Y461335D02*
X750220D01*
Y499720D01*
X724335D02*
X750220D01*
X416284Y254228D02*
Y257772D01*
X423370Y254228D02*
Y257772D01*
X416284D02*
X423370D01*
X416284Y254228D02*
X423370D01*
X357728Y292043D02*
X361272D01*
X357728Y284957D02*
X361272D01*
Y292043D01*
X357728Y284957D02*
Y292043D01*
X364228Y292543D02*
X367772D01*
X364228Y285457D02*
X367772D01*
Y292543D01*
X364228Y285457D02*
Y292543D01*
X370728D02*
X374272D01*
X370728Y285457D02*
X374272D01*
Y292543D01*
X370728Y285457D02*
Y292543D01*
X378228Y285784D02*
X381772D01*
X378228Y292870D02*
X381772D01*
X378228Y285784D02*
Y292870D01*
X381772Y285784D02*
Y292870D01*
X386728Y293043D02*
X390272D01*
X386728Y285957D02*
X390272D01*
Y293043D01*
X386728Y285957D02*
Y293043D01*
X383728Y304543D02*
X387272D01*
X383728Y297457D02*
X387272D01*
Y304543D01*
X383728Y297457D02*
Y304543D01*
X732000Y309032D02*
Y312968D01*
X730031Y311000D02*
X733968D01*
X738083Y269622D02*
Y352378D01*
X725917Y269622D02*
X738083D01*
X725917D02*
Y352378D01*
X738083D01*
X607606Y260913D02*
X668394D01*
Y237606D02*
Y260913D01*
X607606Y237606D02*
Y260913D01*
Y237606D02*
X668394D01*
X537122Y266083D02*
X589878D01*
Y243917D02*
Y266083D01*
X537122Y243917D02*
X589878D01*
X537122D02*
Y266083D01*
X563500Y253031D02*
Y256968D01*
X561531Y255000D02*
X565469D01*
X722055Y431634D02*
Y448366D01*
X728945D01*
Y431634D02*
Y448366D01*
X722055Y431634D02*
X728945D01*
X726000Y395532D02*
Y399468D01*
X724031Y397500D02*
X727969D01*
X719917Y386122D02*
X732083D01*
Y408878D01*
X719917D02*
X732083D01*
X719917Y386122D02*
Y408878D01*
M02*
